%TF.GenerationSoftware,KiCad,Pcbnew,9.0.5*%
%TF.CreationDate,2025-10-29T05:44:14+08:00*%
%TF.ProjectId,lilithbot PCB v2,6c696c69-7468-4626-9f74-205043422076,rev?*%
%TF.SameCoordinates,Original*%
%TF.FileFunction,Legend,Top*%
%TF.FilePolarity,Positive*%
%FSLAX46Y46*%
G04 Gerber Fmt 4.6, Leading zero omitted, Abs format (unit mm)*
G04 Created by KiCad (PCBNEW 9.0.5) date 2025-10-29 05:44:14*
%MOMM*%
%LPD*%
G01*
G04 APERTURE LIST*
%ADD10C,0.100000*%
G04 APERTURE END LIST*
D10*
X101303884Y-97652531D02*
X101303884Y-96652531D01*
X101732455Y-97652531D02*
X101732455Y-97128721D01*
X101732455Y-97128721D02*
X101684836Y-97033483D01*
X101684836Y-97033483D02*
X101589598Y-96985864D01*
X101589598Y-96985864D02*
X101446741Y-96985864D01*
X101446741Y-96985864D02*
X101351503Y-97033483D01*
X101351503Y-97033483D02*
X101303884Y-97081102D01*
X102208646Y-97652531D02*
X102208646Y-96985864D01*
X102208646Y-96652531D02*
X102161027Y-96700150D01*
X102161027Y-96700150D02*
X102208646Y-96747769D01*
X102208646Y-96747769D02*
X102256265Y-96700150D01*
X102256265Y-96700150D02*
X102208646Y-96652531D01*
X102208646Y-96652531D02*
X102208646Y-96747769D01*
X102684836Y-96985864D02*
X102684836Y-97985864D01*
X102684836Y-97033483D02*
X102780074Y-96985864D01*
X102780074Y-96985864D02*
X102970550Y-96985864D01*
X102970550Y-96985864D02*
X103065788Y-97033483D01*
X103065788Y-97033483D02*
X103113407Y-97081102D01*
X103113407Y-97081102D02*
X103161026Y-97176340D01*
X103161026Y-97176340D02*
X103161026Y-97462054D01*
X103161026Y-97462054D02*
X103113407Y-97557292D01*
X103113407Y-97557292D02*
X103065788Y-97604912D01*
X103065788Y-97604912D02*
X102970550Y-97652531D01*
X102970550Y-97652531D02*
X102780074Y-97652531D01*
X102780074Y-97652531D02*
X102684836Y-97604912D01*
X103589598Y-96985864D02*
X103589598Y-97985864D01*
X103589598Y-97033483D02*
X103684836Y-96985864D01*
X103684836Y-96985864D02*
X103875312Y-96985864D01*
X103875312Y-96985864D02*
X103970550Y-97033483D01*
X103970550Y-97033483D02*
X104018169Y-97081102D01*
X104018169Y-97081102D02*
X104065788Y-97176340D01*
X104065788Y-97176340D02*
X104065788Y-97462054D01*
X104065788Y-97462054D02*
X104018169Y-97557292D01*
X104018169Y-97557292D02*
X103970550Y-97604912D01*
X103970550Y-97604912D02*
X103875312Y-97652531D01*
X103875312Y-97652531D02*
X103684836Y-97652531D01*
X103684836Y-97652531D02*
X103589598Y-97604912D01*
X104494360Y-97652531D02*
X104494360Y-96985864D01*
X104494360Y-96652531D02*
X104446741Y-96700150D01*
X104446741Y-96700150D02*
X104494360Y-96747769D01*
X104494360Y-96747769D02*
X104541979Y-96700150D01*
X104541979Y-96700150D02*
X104494360Y-96652531D01*
X104494360Y-96652531D02*
X104494360Y-96747769D01*
X104827693Y-96985864D02*
X105208645Y-96985864D01*
X104970550Y-96652531D02*
X104970550Y-97509673D01*
X104970550Y-97509673D02*
X105018169Y-97604912D01*
X105018169Y-97604912D02*
X105113407Y-97652531D01*
X105113407Y-97652531D02*
X105208645Y-97652531D01*
X105446741Y-96985864D02*
X105684836Y-97652531D01*
X105922931Y-96985864D02*
X105684836Y-97652531D01*
X105684836Y-97652531D02*
X105589598Y-97890626D01*
X105589598Y-97890626D02*
X105541979Y-97938245D01*
X105541979Y-97938245D02*
X105446741Y-97985864D01*
X107065789Y-97652531D02*
X107065789Y-96652531D01*
X107494360Y-97652531D02*
X107494360Y-97128721D01*
X107494360Y-97128721D02*
X107446741Y-97033483D01*
X107446741Y-97033483D02*
X107351503Y-96985864D01*
X107351503Y-96985864D02*
X107208646Y-96985864D01*
X107208646Y-96985864D02*
X107113408Y-97033483D01*
X107113408Y-97033483D02*
X107065789Y-97081102D01*
X108113408Y-97652531D02*
X108018170Y-97604912D01*
X108018170Y-97604912D02*
X107970551Y-97557292D01*
X107970551Y-97557292D02*
X107922932Y-97462054D01*
X107922932Y-97462054D02*
X107922932Y-97176340D01*
X107922932Y-97176340D02*
X107970551Y-97081102D01*
X107970551Y-97081102D02*
X108018170Y-97033483D01*
X108018170Y-97033483D02*
X108113408Y-96985864D01*
X108113408Y-96985864D02*
X108256265Y-96985864D01*
X108256265Y-96985864D02*
X108351503Y-97033483D01*
X108351503Y-97033483D02*
X108399122Y-97081102D01*
X108399122Y-97081102D02*
X108446741Y-97176340D01*
X108446741Y-97176340D02*
X108446741Y-97462054D01*
X108446741Y-97462054D02*
X108399122Y-97557292D01*
X108399122Y-97557292D02*
X108351503Y-97604912D01*
X108351503Y-97604912D02*
X108256265Y-97652531D01*
X108256265Y-97652531D02*
X108113408Y-97652531D01*
X108875313Y-96985864D02*
X108875313Y-97985864D01*
X108875313Y-97033483D02*
X108970551Y-96985864D01*
X108970551Y-96985864D02*
X109161027Y-96985864D01*
X109161027Y-96985864D02*
X109256265Y-97033483D01*
X109256265Y-97033483D02*
X109303884Y-97081102D01*
X109303884Y-97081102D02*
X109351503Y-97176340D01*
X109351503Y-97176340D02*
X109351503Y-97462054D01*
X109351503Y-97462054D02*
X109303884Y-97557292D01*
X109303884Y-97557292D02*
X109256265Y-97604912D01*
X109256265Y-97604912D02*
X109161027Y-97652531D01*
X109161027Y-97652531D02*
X108970551Y-97652531D01*
X108970551Y-97652531D02*
X108875313Y-97604912D01*
X109780075Y-96985864D02*
X109780075Y-97985864D01*
X109780075Y-97033483D02*
X109875313Y-96985864D01*
X109875313Y-96985864D02*
X110065789Y-96985864D01*
X110065789Y-96985864D02*
X110161027Y-97033483D01*
X110161027Y-97033483D02*
X110208646Y-97081102D01*
X110208646Y-97081102D02*
X110256265Y-97176340D01*
X110256265Y-97176340D02*
X110256265Y-97462054D01*
X110256265Y-97462054D02*
X110208646Y-97557292D01*
X110208646Y-97557292D02*
X110161027Y-97604912D01*
X110161027Y-97604912D02*
X110065789Y-97652531D01*
X110065789Y-97652531D02*
X109875313Y-97652531D01*
X109875313Y-97652531D02*
X109780075Y-97604912D01*
X110684837Y-97652531D02*
X110684837Y-96985864D01*
X110684837Y-96652531D02*
X110637218Y-96700150D01*
X110637218Y-96700150D02*
X110684837Y-96747769D01*
X110684837Y-96747769D02*
X110732456Y-96700150D01*
X110732456Y-96700150D02*
X110684837Y-96652531D01*
X110684837Y-96652531D02*
X110684837Y-96747769D01*
X111018170Y-96985864D02*
X111399122Y-96985864D01*
X111161027Y-96652531D02*
X111161027Y-97509673D01*
X111161027Y-97509673D02*
X111208646Y-97604912D01*
X111208646Y-97604912D02*
X111303884Y-97652531D01*
X111303884Y-97652531D02*
X111399122Y-97652531D01*
X111637218Y-96985864D02*
X111875313Y-97652531D01*
X112113408Y-96985864D02*
X111875313Y-97652531D01*
X111875313Y-97652531D02*
X111780075Y-97890626D01*
X111780075Y-97890626D02*
X111732456Y-97938245D01*
X111732456Y-97938245D02*
X111637218Y-97985864D01*
X112541980Y-97604912D02*
X112541980Y-97652531D01*
X112541980Y-97652531D02*
X112494361Y-97747769D01*
X112494361Y-97747769D02*
X112446742Y-97795388D01*
X114161027Y-96985864D02*
X114161027Y-97795388D01*
X114161027Y-97795388D02*
X114113408Y-97890626D01*
X114113408Y-97890626D02*
X114065789Y-97938245D01*
X114065789Y-97938245D02*
X113970551Y-97985864D01*
X113970551Y-97985864D02*
X113827694Y-97985864D01*
X113827694Y-97985864D02*
X113732456Y-97938245D01*
X114161027Y-97604912D02*
X114065789Y-97652531D01*
X114065789Y-97652531D02*
X113875313Y-97652531D01*
X113875313Y-97652531D02*
X113780075Y-97604912D01*
X113780075Y-97604912D02*
X113732456Y-97557292D01*
X113732456Y-97557292D02*
X113684837Y-97462054D01*
X113684837Y-97462054D02*
X113684837Y-97176340D01*
X113684837Y-97176340D02*
X113732456Y-97081102D01*
X113732456Y-97081102D02*
X113780075Y-97033483D01*
X113780075Y-97033483D02*
X113875313Y-96985864D01*
X113875313Y-96985864D02*
X114065789Y-96985864D01*
X114065789Y-96985864D02*
X114161027Y-97033483D01*
X115018170Y-97604912D02*
X114922932Y-97652531D01*
X114922932Y-97652531D02*
X114732456Y-97652531D01*
X114732456Y-97652531D02*
X114637218Y-97604912D01*
X114637218Y-97604912D02*
X114589599Y-97509673D01*
X114589599Y-97509673D02*
X114589599Y-97128721D01*
X114589599Y-97128721D02*
X114637218Y-97033483D01*
X114637218Y-97033483D02*
X114732456Y-96985864D01*
X114732456Y-96985864D02*
X114922932Y-96985864D01*
X114922932Y-96985864D02*
X115018170Y-97033483D01*
X115018170Y-97033483D02*
X115065789Y-97128721D01*
X115065789Y-97128721D02*
X115065789Y-97223959D01*
X115065789Y-97223959D02*
X114589599Y-97319197D01*
X115351504Y-96985864D02*
X115732456Y-96985864D01*
X115494361Y-96652531D02*
X115494361Y-97509673D01*
X115494361Y-97509673D02*
X115541980Y-97604912D01*
X115541980Y-97604912D02*
X115637218Y-97652531D01*
X115637218Y-97652531D02*
X115732456Y-97652531D01*
X116970552Y-97652531D02*
X116875314Y-97604912D01*
X116875314Y-97604912D02*
X116827695Y-97557292D01*
X116827695Y-97557292D02*
X116780076Y-97462054D01*
X116780076Y-97462054D02*
X116780076Y-97176340D01*
X116780076Y-97176340D02*
X116827695Y-97081102D01*
X116827695Y-97081102D02*
X116875314Y-97033483D01*
X116875314Y-97033483D02*
X116970552Y-96985864D01*
X116970552Y-96985864D02*
X117113409Y-96985864D01*
X117113409Y-96985864D02*
X117208647Y-97033483D01*
X117208647Y-97033483D02*
X117256266Y-97081102D01*
X117256266Y-97081102D02*
X117303885Y-97176340D01*
X117303885Y-97176340D02*
X117303885Y-97462054D01*
X117303885Y-97462054D02*
X117256266Y-97557292D01*
X117256266Y-97557292D02*
X117208647Y-97604912D01*
X117208647Y-97604912D02*
X117113409Y-97652531D01*
X117113409Y-97652531D02*
X116970552Y-97652531D01*
X117589600Y-96985864D02*
X117970552Y-96985864D01*
X117732457Y-97652531D02*
X117732457Y-96795388D01*
X117732457Y-96795388D02*
X117780076Y-96700150D01*
X117780076Y-96700150D02*
X117875314Y-96652531D01*
X117875314Y-96652531D02*
X117970552Y-96652531D01*
X118161029Y-96985864D02*
X118541981Y-96985864D01*
X118303886Y-97652531D02*
X118303886Y-96795388D01*
X118303886Y-96795388D02*
X118351505Y-96700150D01*
X118351505Y-96700150D02*
X118446743Y-96652531D01*
X118446743Y-96652531D02*
X118541981Y-96652531D01*
X119637220Y-97652531D02*
X119637220Y-96985864D01*
X119637220Y-97081102D02*
X119684839Y-97033483D01*
X119684839Y-97033483D02*
X119780077Y-96985864D01*
X119780077Y-96985864D02*
X119922934Y-96985864D01*
X119922934Y-96985864D02*
X120018172Y-97033483D01*
X120018172Y-97033483D02*
X120065791Y-97128721D01*
X120065791Y-97128721D02*
X120065791Y-97652531D01*
X120065791Y-97128721D02*
X120113410Y-97033483D01*
X120113410Y-97033483D02*
X120208648Y-96985864D01*
X120208648Y-96985864D02*
X120351505Y-96985864D01*
X120351505Y-96985864D02*
X120446744Y-97033483D01*
X120446744Y-97033483D02*
X120494363Y-97128721D01*
X120494363Y-97128721D02*
X120494363Y-97652531D01*
X120875315Y-96985864D02*
X121113410Y-97652531D01*
X121351505Y-96985864D02*
X121113410Y-97652531D01*
X121113410Y-97652531D02*
X121018172Y-97890626D01*
X121018172Y-97890626D02*
X120970553Y-97938245D01*
X120970553Y-97938245D02*
X120875315Y-97985864D01*
X122494363Y-96985864D02*
X122494363Y-97985864D01*
X122494363Y-97033483D02*
X122589601Y-96985864D01*
X122589601Y-96985864D02*
X122780077Y-96985864D01*
X122780077Y-96985864D02*
X122875315Y-97033483D01*
X122875315Y-97033483D02*
X122922934Y-97081102D01*
X122922934Y-97081102D02*
X122970553Y-97176340D01*
X122970553Y-97176340D02*
X122970553Y-97462054D01*
X122970553Y-97462054D02*
X122922934Y-97557292D01*
X122922934Y-97557292D02*
X122875315Y-97604912D01*
X122875315Y-97604912D02*
X122780077Y-97652531D01*
X122780077Y-97652531D02*
X122589601Y-97652531D01*
X122589601Y-97652531D02*
X122494363Y-97604912D01*
X123399125Y-97652531D02*
X123399125Y-96985864D01*
X123399125Y-97176340D02*
X123446744Y-97081102D01*
X123446744Y-97081102D02*
X123494363Y-97033483D01*
X123494363Y-97033483D02*
X123589601Y-96985864D01*
X123589601Y-96985864D02*
X123684839Y-96985864D01*
X124161030Y-97652531D02*
X124065792Y-97604912D01*
X124065792Y-97604912D02*
X124018173Y-97557292D01*
X124018173Y-97557292D02*
X123970554Y-97462054D01*
X123970554Y-97462054D02*
X123970554Y-97176340D01*
X123970554Y-97176340D02*
X124018173Y-97081102D01*
X124018173Y-97081102D02*
X124065792Y-97033483D01*
X124065792Y-97033483D02*
X124161030Y-96985864D01*
X124161030Y-96985864D02*
X124303887Y-96985864D01*
X124303887Y-96985864D02*
X124399125Y-97033483D01*
X124399125Y-97033483D02*
X124446744Y-97081102D01*
X124446744Y-97081102D02*
X124494363Y-97176340D01*
X124494363Y-97176340D02*
X124494363Y-97462054D01*
X124494363Y-97462054D02*
X124446744Y-97557292D01*
X124446744Y-97557292D02*
X124399125Y-97604912D01*
X124399125Y-97604912D02*
X124303887Y-97652531D01*
X124303887Y-97652531D02*
X124161030Y-97652531D01*
X124922935Y-96985864D02*
X124922935Y-97985864D01*
X124922935Y-97033483D02*
X125018173Y-96985864D01*
X125018173Y-96985864D02*
X125208649Y-96985864D01*
X125208649Y-96985864D02*
X125303887Y-97033483D01*
X125303887Y-97033483D02*
X125351506Y-97081102D01*
X125351506Y-97081102D02*
X125399125Y-97176340D01*
X125399125Y-97176340D02*
X125399125Y-97462054D01*
X125399125Y-97462054D02*
X125351506Y-97557292D01*
X125351506Y-97557292D02*
X125303887Y-97604912D01*
X125303887Y-97604912D02*
X125208649Y-97652531D01*
X125208649Y-97652531D02*
X125018173Y-97652531D01*
X125018173Y-97652531D02*
X124922935Y-97604912D01*
X126208649Y-97604912D02*
X126113411Y-97652531D01*
X126113411Y-97652531D02*
X125922935Y-97652531D01*
X125922935Y-97652531D02*
X125827697Y-97604912D01*
X125827697Y-97604912D02*
X125780078Y-97509673D01*
X125780078Y-97509673D02*
X125780078Y-97128721D01*
X125780078Y-97128721D02*
X125827697Y-97033483D01*
X125827697Y-97033483D02*
X125922935Y-96985864D01*
X125922935Y-96985864D02*
X126113411Y-96985864D01*
X126113411Y-96985864D02*
X126208649Y-97033483D01*
X126208649Y-97033483D02*
X126256268Y-97128721D01*
X126256268Y-97128721D02*
X126256268Y-97223959D01*
X126256268Y-97223959D02*
X125780078Y-97319197D01*
X126684840Y-97652531D02*
X126684840Y-96985864D01*
X126684840Y-97176340D02*
X126732459Y-97081102D01*
X126732459Y-97081102D02*
X126780078Y-97033483D01*
X126780078Y-97033483D02*
X126875316Y-96985864D01*
X126875316Y-96985864D02*
X126970554Y-96985864D01*
X127161031Y-96985864D02*
X127541983Y-96985864D01*
X127303888Y-96652531D02*
X127303888Y-97509673D01*
X127303888Y-97509673D02*
X127351507Y-97604912D01*
X127351507Y-97604912D02*
X127446745Y-97652531D01*
X127446745Y-97652531D02*
X127541983Y-97652531D01*
X127780079Y-96985864D02*
X128018174Y-97652531D01*
X128256269Y-96985864D02*
X128018174Y-97652531D01*
X128018174Y-97652531D02*
X127922936Y-97890626D01*
X127922936Y-97890626D02*
X127875317Y-97938245D01*
X127875317Y-97938245D02*
X127780079Y-97985864D01*
X101303884Y-99262475D02*
X101303884Y-98262475D01*
X101732455Y-99262475D02*
X101732455Y-98738665D01*
X101732455Y-98738665D02*
X101684836Y-98643427D01*
X101684836Y-98643427D02*
X101589598Y-98595808D01*
X101589598Y-98595808D02*
X101446741Y-98595808D01*
X101446741Y-98595808D02*
X101351503Y-98643427D01*
X101351503Y-98643427D02*
X101303884Y-98691046D01*
X102351503Y-99262475D02*
X102256265Y-99214856D01*
X102256265Y-99214856D02*
X102208646Y-99167236D01*
X102208646Y-99167236D02*
X102161027Y-99071998D01*
X102161027Y-99071998D02*
X102161027Y-98786284D01*
X102161027Y-98786284D02*
X102208646Y-98691046D01*
X102208646Y-98691046D02*
X102256265Y-98643427D01*
X102256265Y-98643427D02*
X102351503Y-98595808D01*
X102351503Y-98595808D02*
X102494360Y-98595808D01*
X102494360Y-98595808D02*
X102589598Y-98643427D01*
X102589598Y-98643427D02*
X102637217Y-98691046D01*
X102637217Y-98691046D02*
X102684836Y-98786284D01*
X102684836Y-98786284D02*
X102684836Y-99071998D01*
X102684836Y-99071998D02*
X102637217Y-99167236D01*
X102637217Y-99167236D02*
X102589598Y-99214856D01*
X102589598Y-99214856D02*
X102494360Y-99262475D01*
X102494360Y-99262475D02*
X102351503Y-99262475D01*
X103113408Y-98595808D02*
X103113408Y-99595808D01*
X103113408Y-98643427D02*
X103208646Y-98595808D01*
X103208646Y-98595808D02*
X103399122Y-98595808D01*
X103399122Y-98595808D02*
X103494360Y-98643427D01*
X103494360Y-98643427D02*
X103541979Y-98691046D01*
X103541979Y-98691046D02*
X103589598Y-98786284D01*
X103589598Y-98786284D02*
X103589598Y-99071998D01*
X103589598Y-99071998D02*
X103541979Y-99167236D01*
X103541979Y-99167236D02*
X103494360Y-99214856D01*
X103494360Y-99214856D02*
X103399122Y-99262475D01*
X103399122Y-99262475D02*
X103208646Y-99262475D01*
X103208646Y-99262475D02*
X103113408Y-99214856D01*
X104399122Y-99214856D02*
X104303884Y-99262475D01*
X104303884Y-99262475D02*
X104113408Y-99262475D01*
X104113408Y-99262475D02*
X104018170Y-99214856D01*
X104018170Y-99214856D02*
X103970551Y-99119617D01*
X103970551Y-99119617D02*
X103970551Y-98738665D01*
X103970551Y-98738665D02*
X104018170Y-98643427D01*
X104018170Y-98643427D02*
X104113408Y-98595808D01*
X104113408Y-98595808D02*
X104303884Y-98595808D01*
X104303884Y-98595808D02*
X104399122Y-98643427D01*
X104399122Y-98643427D02*
X104446741Y-98738665D01*
X104446741Y-98738665D02*
X104446741Y-98833903D01*
X104446741Y-98833903D02*
X103970551Y-98929141D01*
X104732456Y-98595808D02*
X105113408Y-98595808D01*
X104875313Y-99262475D02*
X104875313Y-98405332D01*
X104875313Y-98405332D02*
X104922932Y-98310094D01*
X104922932Y-98310094D02*
X105018170Y-98262475D01*
X105018170Y-98262475D02*
X105113408Y-98262475D01*
X105875313Y-98595808D02*
X105875313Y-99262475D01*
X105446742Y-98595808D02*
X105446742Y-99119617D01*
X105446742Y-99119617D02*
X105494361Y-99214856D01*
X105494361Y-99214856D02*
X105589599Y-99262475D01*
X105589599Y-99262475D02*
X105732456Y-99262475D01*
X105732456Y-99262475D02*
X105827694Y-99214856D01*
X105827694Y-99214856D02*
X105875313Y-99167236D01*
X106494361Y-99262475D02*
X106399123Y-99214856D01*
X106399123Y-99214856D02*
X106351504Y-99119617D01*
X106351504Y-99119617D02*
X106351504Y-98262475D01*
X107018171Y-99262475D02*
X106922933Y-99214856D01*
X106922933Y-99214856D02*
X106875314Y-99119617D01*
X106875314Y-99119617D02*
X106875314Y-98262475D01*
X107303886Y-98595808D02*
X107541981Y-99262475D01*
X107780076Y-98595808D02*
X107541981Y-99262475D01*
X107541981Y-99262475D02*
X107446743Y-99500570D01*
X107446743Y-99500570D02*
X107399124Y-99548189D01*
X107399124Y-99548189D02*
X107303886Y-99595808D01*
X108780077Y-98595808D02*
X109161029Y-98595808D01*
X108922934Y-98262475D02*
X108922934Y-99119617D01*
X108922934Y-99119617D02*
X108970553Y-99214856D01*
X108970553Y-99214856D02*
X109065791Y-99262475D01*
X109065791Y-99262475D02*
X109161029Y-99262475D01*
X109494363Y-99262475D02*
X109494363Y-98262475D01*
X109922934Y-99262475D02*
X109922934Y-98738665D01*
X109922934Y-98738665D02*
X109875315Y-98643427D01*
X109875315Y-98643427D02*
X109780077Y-98595808D01*
X109780077Y-98595808D02*
X109637220Y-98595808D01*
X109637220Y-98595808D02*
X109541982Y-98643427D01*
X109541982Y-98643427D02*
X109494363Y-98691046D01*
X110399125Y-99262475D02*
X110399125Y-98595808D01*
X110399125Y-98262475D02*
X110351506Y-98310094D01*
X110351506Y-98310094D02*
X110399125Y-98357713D01*
X110399125Y-98357713D02*
X110446744Y-98310094D01*
X110446744Y-98310094D02*
X110399125Y-98262475D01*
X110399125Y-98262475D02*
X110399125Y-98357713D01*
X110827696Y-99214856D02*
X110922934Y-99262475D01*
X110922934Y-99262475D02*
X111113410Y-99262475D01*
X111113410Y-99262475D02*
X111208648Y-99214856D01*
X111208648Y-99214856D02*
X111256267Y-99119617D01*
X111256267Y-99119617D02*
X111256267Y-99071998D01*
X111256267Y-99071998D02*
X111208648Y-98976760D01*
X111208648Y-98976760D02*
X111113410Y-98929141D01*
X111113410Y-98929141D02*
X110970553Y-98929141D01*
X110970553Y-98929141D02*
X110875315Y-98881522D01*
X110875315Y-98881522D02*
X110827696Y-98786284D01*
X110827696Y-98786284D02*
X110827696Y-98738665D01*
X110827696Y-98738665D02*
X110875315Y-98643427D01*
X110875315Y-98643427D02*
X110970553Y-98595808D01*
X110970553Y-98595808D02*
X111113410Y-98595808D01*
X111113410Y-98595808D02*
X111208648Y-98643427D01*
X112446744Y-99262475D02*
X112446744Y-98262475D01*
X112446744Y-98262475D02*
X112827696Y-98262475D01*
X112827696Y-98262475D02*
X112922934Y-98310094D01*
X112922934Y-98310094D02*
X112970553Y-98357713D01*
X112970553Y-98357713D02*
X113018172Y-98452951D01*
X113018172Y-98452951D02*
X113018172Y-98595808D01*
X113018172Y-98595808D02*
X112970553Y-98691046D01*
X112970553Y-98691046D02*
X112922934Y-98738665D01*
X112922934Y-98738665D02*
X112827696Y-98786284D01*
X112827696Y-98786284D02*
X112446744Y-98786284D01*
X114018172Y-99167236D02*
X113970553Y-99214856D01*
X113970553Y-99214856D02*
X113827696Y-99262475D01*
X113827696Y-99262475D02*
X113732458Y-99262475D01*
X113732458Y-99262475D02*
X113589601Y-99214856D01*
X113589601Y-99214856D02*
X113494363Y-99119617D01*
X113494363Y-99119617D02*
X113446744Y-99024379D01*
X113446744Y-99024379D02*
X113399125Y-98833903D01*
X113399125Y-98833903D02*
X113399125Y-98691046D01*
X113399125Y-98691046D02*
X113446744Y-98500570D01*
X113446744Y-98500570D02*
X113494363Y-98405332D01*
X113494363Y-98405332D02*
X113589601Y-98310094D01*
X113589601Y-98310094D02*
X113732458Y-98262475D01*
X113732458Y-98262475D02*
X113827696Y-98262475D01*
X113827696Y-98262475D02*
X113970553Y-98310094D01*
X113970553Y-98310094D02*
X114018172Y-98357713D01*
X114780077Y-98738665D02*
X114922934Y-98786284D01*
X114922934Y-98786284D02*
X114970553Y-98833903D01*
X114970553Y-98833903D02*
X115018172Y-98929141D01*
X115018172Y-98929141D02*
X115018172Y-99071998D01*
X115018172Y-99071998D02*
X114970553Y-99167236D01*
X114970553Y-99167236D02*
X114922934Y-99214856D01*
X114922934Y-99214856D02*
X114827696Y-99262475D01*
X114827696Y-99262475D02*
X114446744Y-99262475D01*
X114446744Y-99262475D02*
X114446744Y-98262475D01*
X114446744Y-98262475D02*
X114780077Y-98262475D01*
X114780077Y-98262475D02*
X114875315Y-98310094D01*
X114875315Y-98310094D02*
X114922934Y-98357713D01*
X114922934Y-98357713D02*
X114970553Y-98452951D01*
X114970553Y-98452951D02*
X114970553Y-98548189D01*
X114970553Y-98548189D02*
X114922934Y-98643427D01*
X114922934Y-98643427D02*
X114875315Y-98691046D01*
X114875315Y-98691046D02*
X114780077Y-98738665D01*
X114780077Y-98738665D02*
X114446744Y-98738665D01*
X116113411Y-98595808D02*
X116303887Y-99262475D01*
X116303887Y-99262475D02*
X116494363Y-98786284D01*
X116494363Y-98786284D02*
X116684839Y-99262475D01*
X116684839Y-99262475D02*
X116875315Y-98595808D01*
X117399125Y-99262475D02*
X117303887Y-99214856D01*
X117303887Y-99214856D02*
X117256268Y-99167236D01*
X117256268Y-99167236D02*
X117208649Y-99071998D01*
X117208649Y-99071998D02*
X117208649Y-98786284D01*
X117208649Y-98786284D02*
X117256268Y-98691046D01*
X117256268Y-98691046D02*
X117303887Y-98643427D01*
X117303887Y-98643427D02*
X117399125Y-98595808D01*
X117399125Y-98595808D02*
X117541982Y-98595808D01*
X117541982Y-98595808D02*
X117637220Y-98643427D01*
X117637220Y-98643427D02*
X117684839Y-98691046D01*
X117684839Y-98691046D02*
X117732458Y-98786284D01*
X117732458Y-98786284D02*
X117732458Y-99071998D01*
X117732458Y-99071998D02*
X117684839Y-99167236D01*
X117684839Y-99167236D02*
X117637220Y-99214856D01*
X117637220Y-99214856D02*
X117541982Y-99262475D01*
X117541982Y-99262475D02*
X117399125Y-99262475D01*
X118161030Y-99262475D02*
X118161030Y-98595808D01*
X118161030Y-98786284D02*
X118208649Y-98691046D01*
X118208649Y-98691046D02*
X118256268Y-98643427D01*
X118256268Y-98643427D02*
X118351506Y-98595808D01*
X118351506Y-98595808D02*
X118446744Y-98595808D01*
X118780078Y-99262475D02*
X118780078Y-98262475D01*
X118875316Y-98881522D02*
X119161030Y-99262475D01*
X119161030Y-98595808D02*
X118780078Y-98976760D01*
X119541983Y-99214856D02*
X119637221Y-99262475D01*
X119637221Y-99262475D02*
X119827697Y-99262475D01*
X119827697Y-99262475D02*
X119922935Y-99214856D01*
X119922935Y-99214856D02*
X119970554Y-99119617D01*
X119970554Y-99119617D02*
X119970554Y-99071998D01*
X119970554Y-99071998D02*
X119922935Y-98976760D01*
X119922935Y-98976760D02*
X119827697Y-98929141D01*
X119827697Y-98929141D02*
X119684840Y-98929141D01*
X119684840Y-98929141D02*
X119589602Y-98881522D01*
X119589602Y-98881522D02*
X119541983Y-98786284D01*
X119541983Y-98786284D02*
X119541983Y-98738665D01*
X119541983Y-98738665D02*
X119589602Y-98643427D01*
X119589602Y-98643427D02*
X119684840Y-98595808D01*
X119684840Y-98595808D02*
X119827697Y-98595808D01*
X119827697Y-98595808D02*
X119922935Y-98643427D01*
X101303884Y-100491466D02*
X102065789Y-100491466D01*
X103256265Y-100586704D02*
X103732455Y-100586704D01*
X103161027Y-100872419D02*
X103494360Y-99872419D01*
X103494360Y-99872419D02*
X103827693Y-100872419D01*
X104161027Y-100872419D02*
X104161027Y-100205752D01*
X104161027Y-100396228D02*
X104208646Y-100300990D01*
X104208646Y-100300990D02*
X104256265Y-100253371D01*
X104256265Y-100253371D02*
X104351503Y-100205752D01*
X104351503Y-100205752D02*
X104446741Y-100205752D01*
X104637218Y-100205752D02*
X105018170Y-100205752D01*
X104780075Y-99872419D02*
X104780075Y-100729561D01*
X104780075Y-100729561D02*
X104827694Y-100824800D01*
X104827694Y-100824800D02*
X104922932Y-100872419D01*
X104922932Y-100872419D02*
X105018170Y-100872419D01*
X105351504Y-100872419D02*
X105351504Y-99872419D01*
X105780075Y-100872419D02*
X105780075Y-100348609D01*
X105780075Y-100348609D02*
X105732456Y-100253371D01*
X105732456Y-100253371D02*
X105637218Y-100205752D01*
X105637218Y-100205752D02*
X105494361Y-100205752D01*
X105494361Y-100205752D02*
X105399123Y-100253371D01*
X105399123Y-100253371D02*
X105351504Y-100300990D01*
X106684837Y-100205752D02*
X106684837Y-100872419D01*
X106256266Y-100205752D02*
X106256266Y-100729561D01*
X106256266Y-100729561D02*
X106303885Y-100824800D01*
X106303885Y-100824800D02*
X106399123Y-100872419D01*
X106399123Y-100872419D02*
X106541980Y-100872419D01*
X106541980Y-100872419D02*
X106637218Y-100824800D01*
X106637218Y-100824800D02*
X106684837Y-100777180D01*
X107161028Y-100872419D02*
X107161028Y-100205752D01*
X107161028Y-100396228D02*
X107208647Y-100300990D01*
X107208647Y-100300990D02*
X107256266Y-100253371D01*
X107256266Y-100253371D02*
X107351504Y-100205752D01*
X107351504Y-100205752D02*
X107446742Y-100205752D01*
X117110476Y-68457419D02*
X117110476Y-67457419D01*
X117110476Y-67457419D02*
X117443809Y-68171704D01*
X117443809Y-68171704D02*
X117777142Y-67457419D01*
X117777142Y-67457419D02*
X117777142Y-68457419D01*
X118158095Y-67457419D02*
X118777142Y-67457419D01*
X118777142Y-67457419D02*
X118443809Y-67838371D01*
X118443809Y-67838371D02*
X118586666Y-67838371D01*
X118586666Y-67838371D02*
X118681904Y-67885990D01*
X118681904Y-67885990D02*
X118729523Y-67933609D01*
X118729523Y-67933609D02*
X118777142Y-68028847D01*
X118777142Y-68028847D02*
X118777142Y-68266942D01*
X118777142Y-68266942D02*
X118729523Y-68362180D01*
X118729523Y-68362180D02*
X118681904Y-68409800D01*
X118681904Y-68409800D02*
X118586666Y-68457419D01*
X118586666Y-68457419D02*
X118300952Y-68457419D01*
X118300952Y-68457419D02*
X118205714Y-68409800D01*
X118205714Y-68409800D02*
X118158095Y-68362180D01*
X115680931Y-71763847D02*
X115414265Y-71763847D01*
X115414265Y-72182895D02*
X115414265Y-71382895D01*
X115414265Y-71382895D02*
X115795217Y-71382895D01*
X116519026Y-71420990D02*
X116442836Y-71382895D01*
X116442836Y-71382895D02*
X116328550Y-71382895D01*
X116328550Y-71382895D02*
X116214264Y-71420990D01*
X116214264Y-71420990D02*
X116138074Y-71497180D01*
X116138074Y-71497180D02*
X116099979Y-71573371D01*
X116099979Y-71573371D02*
X116061883Y-71725752D01*
X116061883Y-71725752D02*
X116061883Y-71840038D01*
X116061883Y-71840038D02*
X116099979Y-71992419D01*
X116099979Y-71992419D02*
X116138074Y-72068609D01*
X116138074Y-72068609D02*
X116214264Y-72144800D01*
X116214264Y-72144800D02*
X116328550Y-72182895D01*
X116328550Y-72182895D02*
X116404741Y-72182895D01*
X116404741Y-72182895D02*
X116519026Y-72144800D01*
X116519026Y-72144800D02*
X116557122Y-72106704D01*
X116557122Y-72106704D02*
X116557122Y-71840038D01*
X116557122Y-71840038D02*
X116404741Y-71840038D01*
X112886931Y-71763847D02*
X113001217Y-71801942D01*
X113001217Y-71801942D02*
X113039312Y-71840038D01*
X113039312Y-71840038D02*
X113077408Y-71916228D01*
X113077408Y-71916228D02*
X113077408Y-72030514D01*
X113077408Y-72030514D02*
X113039312Y-72106704D01*
X113039312Y-72106704D02*
X113001217Y-72144800D01*
X113001217Y-72144800D02*
X112925027Y-72182895D01*
X112925027Y-72182895D02*
X112620265Y-72182895D01*
X112620265Y-72182895D02*
X112620265Y-71382895D01*
X112620265Y-71382895D02*
X112886931Y-71382895D01*
X112886931Y-71382895D02*
X112963122Y-71420990D01*
X112963122Y-71420990D02*
X113001217Y-71459085D01*
X113001217Y-71459085D02*
X113039312Y-71535276D01*
X113039312Y-71535276D02*
X113039312Y-71611466D01*
X113039312Y-71611466D02*
X113001217Y-71687657D01*
X113001217Y-71687657D02*
X112963122Y-71725752D01*
X112963122Y-71725752D02*
X112886931Y-71763847D01*
X112886931Y-71763847D02*
X112620265Y-71763847D01*
X113877408Y-72182895D02*
X113610741Y-71801942D01*
X113420265Y-72182895D02*
X113420265Y-71382895D01*
X113420265Y-71382895D02*
X113725027Y-71382895D01*
X113725027Y-71382895D02*
X113801217Y-71420990D01*
X113801217Y-71420990D02*
X113839312Y-71459085D01*
X113839312Y-71459085D02*
X113877408Y-71535276D01*
X113877408Y-71535276D02*
X113877408Y-71649561D01*
X113877408Y-71649561D02*
X113839312Y-71725752D01*
X113839312Y-71725752D02*
X113801217Y-71763847D01*
X113801217Y-71763847D02*
X113725027Y-71801942D01*
X113725027Y-71801942D02*
X113420265Y-71801942D01*
X114182169Y-71954323D02*
X114563122Y-71954323D01*
X114105979Y-72182895D02*
X114372646Y-71382895D01*
X114372646Y-71382895D02*
X114639312Y-72182895D01*
X117712931Y-71763847D02*
X117446265Y-71763847D01*
X117446265Y-72182895D02*
X117446265Y-71382895D01*
X117446265Y-71382895D02*
X117827217Y-71382895D01*
X118703407Y-71344800D02*
X118017693Y-72373371D01*
X119427217Y-72182895D02*
X119160550Y-71801942D01*
X118970074Y-72182895D02*
X118970074Y-71382895D01*
X118970074Y-71382895D02*
X119274836Y-71382895D01*
X119274836Y-71382895D02*
X119351026Y-71420990D01*
X119351026Y-71420990D02*
X119389121Y-71459085D01*
X119389121Y-71459085D02*
X119427217Y-71535276D01*
X119427217Y-71535276D02*
X119427217Y-71649561D01*
X119427217Y-71649561D02*
X119389121Y-71725752D01*
X119389121Y-71725752D02*
X119351026Y-71763847D01*
X119351026Y-71763847D02*
X119274836Y-71801942D01*
X119274836Y-71801942D02*
X118970074Y-71801942D01*
X120240265Y-72182895D02*
X120240265Y-71382895D01*
X120240265Y-71382895D02*
X120545027Y-71382895D01*
X120545027Y-71382895D02*
X120621217Y-71420990D01*
X120621217Y-71420990D02*
X120659312Y-71459085D01*
X120659312Y-71459085D02*
X120697408Y-71535276D01*
X120697408Y-71535276D02*
X120697408Y-71649561D01*
X120697408Y-71649561D02*
X120659312Y-71725752D01*
X120659312Y-71725752D02*
X120621217Y-71763847D01*
X120621217Y-71763847D02*
X120545027Y-71801942D01*
X120545027Y-71801942D02*
X120240265Y-71801942D01*
X120964074Y-71382895D02*
X121154550Y-72182895D01*
X121154550Y-72182895D02*
X121306931Y-71611466D01*
X121306931Y-71611466D02*
X121459312Y-72182895D01*
X121459312Y-72182895D02*
X121649789Y-71382895D01*
X121954551Y-72182895D02*
X121954551Y-71382895D01*
X121954551Y-71382895D02*
X122221217Y-71954323D01*
X122221217Y-71954323D02*
X122487884Y-71382895D01*
X122487884Y-71382895D02*
X122487884Y-72182895D01*
X119182973Y-81037419D02*
X119182973Y-81846942D01*
X119182973Y-81846942D02*
X119230592Y-81942180D01*
X119230592Y-81942180D02*
X119278211Y-81989800D01*
X119278211Y-81989800D02*
X119373449Y-82037419D01*
X119373449Y-82037419D02*
X119563925Y-82037419D01*
X119563925Y-82037419D02*
X119659163Y-81989800D01*
X119659163Y-81989800D02*
X119706782Y-81942180D01*
X119706782Y-81942180D02*
X119754401Y-81846942D01*
X119754401Y-81846942D02*
X119754401Y-81037419D01*
X120135354Y-81037419D02*
X120754401Y-81037419D01*
X120754401Y-81037419D02*
X120421068Y-81418371D01*
X120421068Y-81418371D02*
X120563925Y-81418371D01*
X120563925Y-81418371D02*
X120659163Y-81465990D01*
X120659163Y-81465990D02*
X120706782Y-81513609D01*
X120706782Y-81513609D02*
X120754401Y-81608847D01*
X120754401Y-81608847D02*
X120754401Y-81846942D01*
X120754401Y-81846942D02*
X120706782Y-81942180D01*
X120706782Y-81942180D02*
X120659163Y-81989800D01*
X120659163Y-81989800D02*
X120563925Y-82037419D01*
X120563925Y-82037419D02*
X120278211Y-82037419D01*
X120278211Y-82037419D02*
X120182973Y-81989800D01*
X120182973Y-81989800D02*
X120135354Y-81942180D01*
X133147217Y-76888609D02*
X133290074Y-76936228D01*
X133290074Y-76936228D02*
X133337693Y-76983847D01*
X133337693Y-76983847D02*
X133385312Y-77079085D01*
X133385312Y-77079085D02*
X133385312Y-77221942D01*
X133385312Y-77221942D02*
X133337693Y-77317180D01*
X133337693Y-77317180D02*
X133290074Y-77364800D01*
X133290074Y-77364800D02*
X133194836Y-77412419D01*
X133194836Y-77412419D02*
X132813884Y-77412419D01*
X132813884Y-77412419D02*
X132813884Y-76412419D01*
X132813884Y-76412419D02*
X133147217Y-76412419D01*
X133147217Y-76412419D02*
X133242455Y-76460038D01*
X133242455Y-76460038D02*
X133290074Y-76507657D01*
X133290074Y-76507657D02*
X133337693Y-76602895D01*
X133337693Y-76602895D02*
X133337693Y-76698133D01*
X133337693Y-76698133D02*
X133290074Y-76793371D01*
X133290074Y-76793371D02*
X133242455Y-76840990D01*
X133242455Y-76840990D02*
X133147217Y-76888609D01*
X133147217Y-76888609D02*
X132813884Y-76888609D01*
X134242455Y-76412419D02*
X134051979Y-76412419D01*
X134051979Y-76412419D02*
X133956741Y-76460038D01*
X133956741Y-76460038D02*
X133909122Y-76507657D01*
X133909122Y-76507657D02*
X133813884Y-76650514D01*
X133813884Y-76650514D02*
X133766265Y-76840990D01*
X133766265Y-76840990D02*
X133766265Y-77221942D01*
X133766265Y-77221942D02*
X133813884Y-77317180D01*
X133813884Y-77317180D02*
X133861503Y-77364800D01*
X133861503Y-77364800D02*
X133956741Y-77412419D01*
X133956741Y-77412419D02*
X134147217Y-77412419D01*
X134147217Y-77412419D02*
X134242455Y-77364800D01*
X134242455Y-77364800D02*
X134290074Y-77317180D01*
X134290074Y-77317180D02*
X134337693Y-77221942D01*
X134337693Y-77221942D02*
X134337693Y-76983847D01*
X134337693Y-76983847D02*
X134290074Y-76888609D01*
X134290074Y-76888609D02*
X134242455Y-76840990D01*
X134242455Y-76840990D02*
X134147217Y-76793371D01*
X134147217Y-76793371D02*
X133956741Y-76793371D01*
X133956741Y-76793371D02*
X133861503Y-76840990D01*
X133861503Y-76840990D02*
X133813884Y-76888609D01*
X133813884Y-76888609D02*
X133766265Y-76983847D01*
X128067217Y-76888609D02*
X128210074Y-76936228D01*
X128210074Y-76936228D02*
X128257693Y-76983847D01*
X128257693Y-76983847D02*
X128305312Y-77079085D01*
X128305312Y-77079085D02*
X128305312Y-77221942D01*
X128305312Y-77221942D02*
X128257693Y-77317180D01*
X128257693Y-77317180D02*
X128210074Y-77364800D01*
X128210074Y-77364800D02*
X128114836Y-77412419D01*
X128114836Y-77412419D02*
X127733884Y-77412419D01*
X127733884Y-77412419D02*
X127733884Y-76412419D01*
X127733884Y-76412419D02*
X128067217Y-76412419D01*
X128067217Y-76412419D02*
X128162455Y-76460038D01*
X128162455Y-76460038D02*
X128210074Y-76507657D01*
X128210074Y-76507657D02*
X128257693Y-76602895D01*
X128257693Y-76602895D02*
X128257693Y-76698133D01*
X128257693Y-76698133D02*
X128210074Y-76793371D01*
X128210074Y-76793371D02*
X128162455Y-76840990D01*
X128162455Y-76840990D02*
X128067217Y-76888609D01*
X128067217Y-76888609D02*
X127733884Y-76888609D01*
X129162455Y-76745752D02*
X129162455Y-77412419D01*
X128924360Y-76364800D02*
X128686265Y-77079085D01*
X128686265Y-77079085D02*
X129305312Y-77079085D01*
X138227217Y-76888609D02*
X138370074Y-76936228D01*
X138370074Y-76936228D02*
X138417693Y-76983847D01*
X138417693Y-76983847D02*
X138465312Y-77079085D01*
X138465312Y-77079085D02*
X138465312Y-77221942D01*
X138465312Y-77221942D02*
X138417693Y-77317180D01*
X138417693Y-77317180D02*
X138370074Y-77364800D01*
X138370074Y-77364800D02*
X138274836Y-77412419D01*
X138274836Y-77412419D02*
X137893884Y-77412419D01*
X137893884Y-77412419D02*
X137893884Y-76412419D01*
X137893884Y-76412419D02*
X138227217Y-76412419D01*
X138227217Y-76412419D02*
X138322455Y-76460038D01*
X138322455Y-76460038D02*
X138370074Y-76507657D01*
X138370074Y-76507657D02*
X138417693Y-76602895D01*
X138417693Y-76602895D02*
X138417693Y-76698133D01*
X138417693Y-76698133D02*
X138370074Y-76793371D01*
X138370074Y-76793371D02*
X138322455Y-76840990D01*
X138322455Y-76840990D02*
X138227217Y-76888609D01*
X138227217Y-76888609D02*
X137893884Y-76888609D01*
X139036741Y-76840990D02*
X138941503Y-76793371D01*
X138941503Y-76793371D02*
X138893884Y-76745752D01*
X138893884Y-76745752D02*
X138846265Y-76650514D01*
X138846265Y-76650514D02*
X138846265Y-76602895D01*
X138846265Y-76602895D02*
X138893884Y-76507657D01*
X138893884Y-76507657D02*
X138941503Y-76460038D01*
X138941503Y-76460038D02*
X139036741Y-76412419D01*
X139036741Y-76412419D02*
X139227217Y-76412419D01*
X139227217Y-76412419D02*
X139322455Y-76460038D01*
X139322455Y-76460038D02*
X139370074Y-76507657D01*
X139370074Y-76507657D02*
X139417693Y-76602895D01*
X139417693Y-76602895D02*
X139417693Y-76650514D01*
X139417693Y-76650514D02*
X139370074Y-76745752D01*
X139370074Y-76745752D02*
X139322455Y-76793371D01*
X139322455Y-76793371D02*
X139227217Y-76840990D01*
X139227217Y-76840990D02*
X139036741Y-76840990D01*
X139036741Y-76840990D02*
X138941503Y-76888609D01*
X138941503Y-76888609D02*
X138893884Y-76936228D01*
X138893884Y-76936228D02*
X138846265Y-77031466D01*
X138846265Y-77031466D02*
X138846265Y-77221942D01*
X138846265Y-77221942D02*
X138893884Y-77317180D01*
X138893884Y-77317180D02*
X138941503Y-77364800D01*
X138941503Y-77364800D02*
X139036741Y-77412419D01*
X139036741Y-77412419D02*
X139227217Y-77412419D01*
X139227217Y-77412419D02*
X139322455Y-77364800D01*
X139322455Y-77364800D02*
X139370074Y-77317180D01*
X139370074Y-77317180D02*
X139417693Y-77221942D01*
X139417693Y-77221942D02*
X139417693Y-77031466D01*
X139417693Y-77031466D02*
X139370074Y-76936228D01*
X139370074Y-76936228D02*
X139322455Y-76888609D01*
X139322455Y-76888609D02*
X139227217Y-76840990D01*
X135687217Y-76888609D02*
X135830074Y-76936228D01*
X135830074Y-76936228D02*
X135877693Y-76983847D01*
X135877693Y-76983847D02*
X135925312Y-77079085D01*
X135925312Y-77079085D02*
X135925312Y-77221942D01*
X135925312Y-77221942D02*
X135877693Y-77317180D01*
X135877693Y-77317180D02*
X135830074Y-77364800D01*
X135830074Y-77364800D02*
X135734836Y-77412419D01*
X135734836Y-77412419D02*
X135353884Y-77412419D01*
X135353884Y-77412419D02*
X135353884Y-76412419D01*
X135353884Y-76412419D02*
X135687217Y-76412419D01*
X135687217Y-76412419D02*
X135782455Y-76460038D01*
X135782455Y-76460038D02*
X135830074Y-76507657D01*
X135830074Y-76507657D02*
X135877693Y-76602895D01*
X135877693Y-76602895D02*
X135877693Y-76698133D01*
X135877693Y-76698133D02*
X135830074Y-76793371D01*
X135830074Y-76793371D02*
X135782455Y-76840990D01*
X135782455Y-76840990D02*
X135687217Y-76888609D01*
X135687217Y-76888609D02*
X135353884Y-76888609D01*
X136258646Y-76412419D02*
X136925312Y-76412419D01*
X136925312Y-76412419D02*
X136496741Y-77412419D01*
X122860265Y-86016704D02*
X123336455Y-86016704D01*
X122765027Y-86302419D02*
X123098360Y-85302419D01*
X123098360Y-85302419D02*
X123431693Y-86302419D01*
X123717408Y-85397657D02*
X123765027Y-85350038D01*
X123765027Y-85350038D02*
X123860265Y-85302419D01*
X123860265Y-85302419D02*
X124098360Y-85302419D01*
X124098360Y-85302419D02*
X124193598Y-85350038D01*
X124193598Y-85350038D02*
X124241217Y-85397657D01*
X124241217Y-85397657D02*
X124288836Y-85492895D01*
X124288836Y-85492895D02*
X124288836Y-85588133D01*
X124288836Y-85588133D02*
X124241217Y-85730990D01*
X124241217Y-85730990D02*
X123669789Y-86302419D01*
X123669789Y-86302419D02*
X124288836Y-86302419D01*
X117685027Y-85302419D02*
X118018360Y-86302419D01*
X118018360Y-86302419D02*
X118351693Y-85302419D01*
X118637408Y-86016704D02*
X119113598Y-86016704D01*
X118542170Y-86302419D02*
X118875503Y-85302419D01*
X118875503Y-85302419D02*
X119208836Y-86302419D01*
X120574265Y-86016704D02*
X121050455Y-86016704D01*
X120479027Y-86302419D02*
X120812360Y-85302419D01*
X120812360Y-85302419D02*
X121145693Y-86302419D01*
X122002836Y-86302419D02*
X121431408Y-86302419D01*
X121717122Y-86302419D02*
X121717122Y-85302419D01*
X121717122Y-85302419D02*
X121621884Y-85445276D01*
X121621884Y-85445276D02*
X121526646Y-85540514D01*
X121526646Y-85540514D02*
X121431408Y-85588133D01*
X130607217Y-76888609D02*
X130750074Y-76936228D01*
X130750074Y-76936228D02*
X130797693Y-76983847D01*
X130797693Y-76983847D02*
X130845312Y-77079085D01*
X130845312Y-77079085D02*
X130845312Y-77221942D01*
X130845312Y-77221942D02*
X130797693Y-77317180D01*
X130797693Y-77317180D02*
X130750074Y-77364800D01*
X130750074Y-77364800D02*
X130654836Y-77412419D01*
X130654836Y-77412419D02*
X130273884Y-77412419D01*
X130273884Y-77412419D02*
X130273884Y-76412419D01*
X130273884Y-76412419D02*
X130607217Y-76412419D01*
X130607217Y-76412419D02*
X130702455Y-76460038D01*
X130702455Y-76460038D02*
X130750074Y-76507657D01*
X130750074Y-76507657D02*
X130797693Y-76602895D01*
X130797693Y-76602895D02*
X130797693Y-76698133D01*
X130797693Y-76698133D02*
X130750074Y-76793371D01*
X130750074Y-76793371D02*
X130702455Y-76840990D01*
X130702455Y-76840990D02*
X130607217Y-76888609D01*
X130607217Y-76888609D02*
X130273884Y-76888609D01*
X131750074Y-76412419D02*
X131273884Y-76412419D01*
X131273884Y-76412419D02*
X131226265Y-76888609D01*
X131226265Y-76888609D02*
X131273884Y-76840990D01*
X131273884Y-76840990D02*
X131369122Y-76793371D01*
X131369122Y-76793371D02*
X131607217Y-76793371D01*
X131607217Y-76793371D02*
X131702455Y-76840990D01*
X131702455Y-76840990D02*
X131750074Y-76888609D01*
X131750074Y-76888609D02*
X131797693Y-76983847D01*
X131797693Y-76983847D02*
X131797693Y-77221942D01*
X131797693Y-77221942D02*
X131750074Y-77317180D01*
X131750074Y-77317180D02*
X131702455Y-77364800D01*
X131702455Y-77364800D02*
X131607217Y-77412419D01*
X131607217Y-77412419D02*
X131369122Y-77412419D01*
X131369122Y-77412419D02*
X131273884Y-77364800D01*
X131273884Y-77364800D02*
X131226265Y-77317180D01*
X127940265Y-86016704D02*
X128416455Y-86016704D01*
X127845027Y-86302419D02*
X128178360Y-85302419D01*
X128178360Y-85302419D02*
X128511693Y-86302419D01*
X129273598Y-85635752D02*
X129273598Y-86302419D01*
X129035503Y-85254800D02*
X128797408Y-85969085D01*
X128797408Y-85969085D02*
X129416455Y-85969085D01*
X125400265Y-86016704D02*
X125876455Y-86016704D01*
X125305027Y-86302419D02*
X125638360Y-85302419D01*
X125638360Y-85302419D02*
X125971693Y-86302419D01*
X126209789Y-85302419D02*
X126828836Y-85302419D01*
X126828836Y-85302419D02*
X126495503Y-85683371D01*
X126495503Y-85683371D02*
X126638360Y-85683371D01*
X126638360Y-85683371D02*
X126733598Y-85730990D01*
X126733598Y-85730990D02*
X126781217Y-85778609D01*
X126781217Y-85778609D02*
X126828836Y-85873847D01*
X126828836Y-85873847D02*
X126828836Y-86111942D01*
X126828836Y-86111942D02*
X126781217Y-86207180D01*
X126781217Y-86207180D02*
X126733598Y-86254800D01*
X126733598Y-86254800D02*
X126638360Y-86302419D01*
X126638360Y-86302419D02*
X126352646Y-86302419D01*
X126352646Y-86302419D02*
X126257408Y-86254800D01*
X126257408Y-86254800D02*
X126209789Y-86207180D01*
X133020265Y-86016704D02*
X133496455Y-86016704D01*
X132925027Y-86302419D02*
X133258360Y-85302419D01*
X133258360Y-85302419D02*
X133591693Y-86302419D01*
X134353598Y-85302419D02*
X134163122Y-85302419D01*
X134163122Y-85302419D02*
X134067884Y-85350038D01*
X134067884Y-85350038D02*
X134020265Y-85397657D01*
X134020265Y-85397657D02*
X133925027Y-85540514D01*
X133925027Y-85540514D02*
X133877408Y-85730990D01*
X133877408Y-85730990D02*
X133877408Y-86111942D01*
X133877408Y-86111942D02*
X133925027Y-86207180D01*
X133925027Y-86207180D02*
X133972646Y-86254800D01*
X133972646Y-86254800D02*
X134067884Y-86302419D01*
X134067884Y-86302419D02*
X134258360Y-86302419D01*
X134258360Y-86302419D02*
X134353598Y-86254800D01*
X134353598Y-86254800D02*
X134401217Y-86207180D01*
X134401217Y-86207180D02*
X134448836Y-86111942D01*
X134448836Y-86111942D02*
X134448836Y-85873847D01*
X134448836Y-85873847D02*
X134401217Y-85778609D01*
X134401217Y-85778609D02*
X134353598Y-85730990D01*
X134353598Y-85730990D02*
X134258360Y-85683371D01*
X134258360Y-85683371D02*
X134067884Y-85683371D01*
X134067884Y-85683371D02*
X133972646Y-85730990D01*
X133972646Y-85730990D02*
X133925027Y-85778609D01*
X133925027Y-85778609D02*
X133877408Y-85873847D01*
X120447217Y-76888609D02*
X120590074Y-76936228D01*
X120590074Y-76936228D02*
X120637693Y-76983847D01*
X120637693Y-76983847D02*
X120685312Y-77079085D01*
X120685312Y-77079085D02*
X120685312Y-77221942D01*
X120685312Y-77221942D02*
X120637693Y-77317180D01*
X120637693Y-77317180D02*
X120590074Y-77364800D01*
X120590074Y-77364800D02*
X120494836Y-77412419D01*
X120494836Y-77412419D02*
X120113884Y-77412419D01*
X120113884Y-77412419D02*
X120113884Y-76412419D01*
X120113884Y-76412419D02*
X120447217Y-76412419D01*
X120447217Y-76412419D02*
X120542455Y-76460038D01*
X120542455Y-76460038D02*
X120590074Y-76507657D01*
X120590074Y-76507657D02*
X120637693Y-76602895D01*
X120637693Y-76602895D02*
X120637693Y-76698133D01*
X120637693Y-76698133D02*
X120590074Y-76793371D01*
X120590074Y-76793371D02*
X120542455Y-76840990D01*
X120542455Y-76840990D02*
X120447217Y-76888609D01*
X120447217Y-76888609D02*
X120113884Y-76888609D01*
X121637693Y-77412419D02*
X121066265Y-77412419D01*
X121351979Y-77412419D02*
X121351979Y-76412419D01*
X121351979Y-76412419D02*
X121256741Y-76555276D01*
X121256741Y-76555276D02*
X121161503Y-76650514D01*
X121161503Y-76650514D02*
X121066265Y-76698133D01*
X125527217Y-76888609D02*
X125670074Y-76936228D01*
X125670074Y-76936228D02*
X125717693Y-76983847D01*
X125717693Y-76983847D02*
X125765312Y-77079085D01*
X125765312Y-77079085D02*
X125765312Y-77221942D01*
X125765312Y-77221942D02*
X125717693Y-77317180D01*
X125717693Y-77317180D02*
X125670074Y-77364800D01*
X125670074Y-77364800D02*
X125574836Y-77412419D01*
X125574836Y-77412419D02*
X125193884Y-77412419D01*
X125193884Y-77412419D02*
X125193884Y-76412419D01*
X125193884Y-76412419D02*
X125527217Y-76412419D01*
X125527217Y-76412419D02*
X125622455Y-76460038D01*
X125622455Y-76460038D02*
X125670074Y-76507657D01*
X125670074Y-76507657D02*
X125717693Y-76602895D01*
X125717693Y-76602895D02*
X125717693Y-76698133D01*
X125717693Y-76698133D02*
X125670074Y-76793371D01*
X125670074Y-76793371D02*
X125622455Y-76840990D01*
X125622455Y-76840990D02*
X125527217Y-76888609D01*
X125527217Y-76888609D02*
X125193884Y-76888609D01*
X126098646Y-76412419D02*
X126717693Y-76412419D01*
X126717693Y-76412419D02*
X126384360Y-76793371D01*
X126384360Y-76793371D02*
X126527217Y-76793371D01*
X126527217Y-76793371D02*
X126622455Y-76840990D01*
X126622455Y-76840990D02*
X126670074Y-76888609D01*
X126670074Y-76888609D02*
X126717693Y-76983847D01*
X126717693Y-76983847D02*
X126717693Y-77221942D01*
X126717693Y-77221942D02*
X126670074Y-77317180D01*
X126670074Y-77317180D02*
X126622455Y-77364800D01*
X126622455Y-77364800D02*
X126527217Y-77412419D01*
X126527217Y-77412419D02*
X126241503Y-77412419D01*
X126241503Y-77412419D02*
X126146265Y-77364800D01*
X126146265Y-77364800D02*
X126098646Y-77317180D01*
X122987217Y-76888609D02*
X123130074Y-76936228D01*
X123130074Y-76936228D02*
X123177693Y-76983847D01*
X123177693Y-76983847D02*
X123225312Y-77079085D01*
X123225312Y-77079085D02*
X123225312Y-77221942D01*
X123225312Y-77221942D02*
X123177693Y-77317180D01*
X123177693Y-77317180D02*
X123130074Y-77364800D01*
X123130074Y-77364800D02*
X123034836Y-77412419D01*
X123034836Y-77412419D02*
X122653884Y-77412419D01*
X122653884Y-77412419D02*
X122653884Y-76412419D01*
X122653884Y-76412419D02*
X122987217Y-76412419D01*
X122987217Y-76412419D02*
X123082455Y-76460038D01*
X123082455Y-76460038D02*
X123130074Y-76507657D01*
X123130074Y-76507657D02*
X123177693Y-76602895D01*
X123177693Y-76602895D02*
X123177693Y-76698133D01*
X123177693Y-76698133D02*
X123130074Y-76793371D01*
X123130074Y-76793371D02*
X123082455Y-76840990D01*
X123082455Y-76840990D02*
X122987217Y-76888609D01*
X122987217Y-76888609D02*
X122653884Y-76888609D01*
X123606265Y-76507657D02*
X123653884Y-76460038D01*
X123653884Y-76460038D02*
X123749122Y-76412419D01*
X123749122Y-76412419D02*
X123987217Y-76412419D01*
X123987217Y-76412419D02*
X124082455Y-76460038D01*
X124082455Y-76460038D02*
X124130074Y-76507657D01*
X124130074Y-76507657D02*
X124177693Y-76602895D01*
X124177693Y-76602895D02*
X124177693Y-76698133D01*
X124177693Y-76698133D02*
X124130074Y-76840990D01*
X124130074Y-76840990D02*
X123558646Y-77412419D01*
X123558646Y-77412419D02*
X124177693Y-77412419D01*
X117431027Y-76412419D02*
X117764360Y-77412419D01*
X117764360Y-77412419D02*
X118097693Y-76412419D01*
X118764360Y-76888609D02*
X118907217Y-76936228D01*
X118907217Y-76936228D02*
X118954836Y-76983847D01*
X118954836Y-76983847D02*
X119002455Y-77079085D01*
X119002455Y-77079085D02*
X119002455Y-77221942D01*
X119002455Y-77221942D02*
X118954836Y-77317180D01*
X118954836Y-77317180D02*
X118907217Y-77364800D01*
X118907217Y-77364800D02*
X118811979Y-77412419D01*
X118811979Y-77412419D02*
X118431027Y-77412419D01*
X118431027Y-77412419D02*
X118431027Y-76412419D01*
X118431027Y-76412419D02*
X118764360Y-76412419D01*
X118764360Y-76412419D02*
X118859598Y-76460038D01*
X118859598Y-76460038D02*
X118907217Y-76507657D01*
X118907217Y-76507657D02*
X118954836Y-76602895D01*
X118954836Y-76602895D02*
X118954836Y-76698133D01*
X118954836Y-76698133D02*
X118907217Y-76793371D01*
X118907217Y-76793371D02*
X118859598Y-76840990D01*
X118859598Y-76840990D02*
X118764360Y-76888609D01*
X118764360Y-76888609D02*
X118431027Y-76888609D01*
X140627693Y-76420038D02*
X140532455Y-76372419D01*
X140532455Y-76372419D02*
X140389598Y-76372419D01*
X140389598Y-76372419D02*
X140246741Y-76420038D01*
X140246741Y-76420038D02*
X140151503Y-76515276D01*
X140151503Y-76515276D02*
X140103884Y-76610514D01*
X140103884Y-76610514D02*
X140056265Y-76800990D01*
X140056265Y-76800990D02*
X140056265Y-76943847D01*
X140056265Y-76943847D02*
X140103884Y-77134323D01*
X140103884Y-77134323D02*
X140151503Y-77229561D01*
X140151503Y-77229561D02*
X140246741Y-77324800D01*
X140246741Y-77324800D02*
X140389598Y-77372419D01*
X140389598Y-77372419D02*
X140484836Y-77372419D01*
X140484836Y-77372419D02*
X140627693Y-77324800D01*
X140627693Y-77324800D02*
X140675312Y-77277180D01*
X140675312Y-77277180D02*
X140675312Y-76943847D01*
X140675312Y-76943847D02*
X140484836Y-76943847D01*
X141103884Y-77372419D02*
X141103884Y-76372419D01*
X141103884Y-76372419D02*
X141675312Y-77372419D01*
X141675312Y-77372419D02*
X141675312Y-76372419D01*
X142151503Y-77372419D02*
X142151503Y-76372419D01*
X142151503Y-76372419D02*
X142389598Y-76372419D01*
X142389598Y-76372419D02*
X142532455Y-76420038D01*
X142532455Y-76420038D02*
X142627693Y-76515276D01*
X142627693Y-76515276D02*
X142675312Y-76610514D01*
X142675312Y-76610514D02*
X142722931Y-76800990D01*
X142722931Y-76800990D02*
X142722931Y-76943847D01*
X142722931Y-76943847D02*
X142675312Y-77134323D01*
X142675312Y-77134323D02*
X142627693Y-77229561D01*
X142627693Y-77229561D02*
X142532455Y-77324800D01*
X142532455Y-77324800D02*
X142389598Y-77372419D01*
X142389598Y-77372419D02*
X142151503Y-77372419D01*
X138100265Y-86016704D02*
X138576455Y-86016704D01*
X138005027Y-86302419D02*
X138338360Y-85302419D01*
X138338360Y-85302419D02*
X138671693Y-86302419D01*
X139147884Y-85730990D02*
X139052646Y-85683371D01*
X139052646Y-85683371D02*
X139005027Y-85635752D01*
X139005027Y-85635752D02*
X138957408Y-85540514D01*
X138957408Y-85540514D02*
X138957408Y-85492895D01*
X138957408Y-85492895D02*
X139005027Y-85397657D01*
X139005027Y-85397657D02*
X139052646Y-85350038D01*
X139052646Y-85350038D02*
X139147884Y-85302419D01*
X139147884Y-85302419D02*
X139338360Y-85302419D01*
X139338360Y-85302419D02*
X139433598Y-85350038D01*
X139433598Y-85350038D02*
X139481217Y-85397657D01*
X139481217Y-85397657D02*
X139528836Y-85492895D01*
X139528836Y-85492895D02*
X139528836Y-85540514D01*
X139528836Y-85540514D02*
X139481217Y-85635752D01*
X139481217Y-85635752D02*
X139433598Y-85683371D01*
X139433598Y-85683371D02*
X139338360Y-85730990D01*
X139338360Y-85730990D02*
X139147884Y-85730990D01*
X139147884Y-85730990D02*
X139052646Y-85778609D01*
X139052646Y-85778609D02*
X139005027Y-85826228D01*
X139005027Y-85826228D02*
X138957408Y-85921466D01*
X138957408Y-85921466D02*
X138957408Y-86111942D01*
X138957408Y-86111942D02*
X139005027Y-86207180D01*
X139005027Y-86207180D02*
X139052646Y-86254800D01*
X139052646Y-86254800D02*
X139147884Y-86302419D01*
X139147884Y-86302419D02*
X139338360Y-86302419D01*
X139338360Y-86302419D02*
X139433598Y-86254800D01*
X139433598Y-86254800D02*
X139481217Y-86207180D01*
X139481217Y-86207180D02*
X139528836Y-86111942D01*
X139528836Y-86111942D02*
X139528836Y-85921466D01*
X139528836Y-85921466D02*
X139481217Y-85826228D01*
X139481217Y-85826228D02*
X139433598Y-85778609D01*
X139433598Y-85778609D02*
X139338360Y-85730990D01*
X140878360Y-85302419D02*
X141068836Y-85302419D01*
X141068836Y-85302419D02*
X141164074Y-85350038D01*
X141164074Y-85350038D02*
X141259312Y-85445276D01*
X141259312Y-85445276D02*
X141306931Y-85635752D01*
X141306931Y-85635752D02*
X141306931Y-85969085D01*
X141306931Y-85969085D02*
X141259312Y-86159561D01*
X141259312Y-86159561D02*
X141164074Y-86254800D01*
X141164074Y-86254800D02*
X141068836Y-86302419D01*
X141068836Y-86302419D02*
X140878360Y-86302419D01*
X140878360Y-86302419D02*
X140783122Y-86254800D01*
X140783122Y-86254800D02*
X140687884Y-86159561D01*
X140687884Y-86159561D02*
X140640265Y-85969085D01*
X140640265Y-85969085D02*
X140640265Y-85635752D01*
X140640265Y-85635752D02*
X140687884Y-85445276D01*
X140687884Y-85445276D02*
X140783122Y-85350038D01*
X140783122Y-85350038D02*
X140878360Y-85302419D01*
X141735503Y-85778609D02*
X142068836Y-85778609D01*
X142211693Y-86302419D02*
X141735503Y-86302419D01*
X141735503Y-86302419D02*
X141735503Y-85302419D01*
X141735503Y-85302419D02*
X142211693Y-85302419D01*
X135814265Y-86016704D02*
X136290455Y-86016704D01*
X135719027Y-86302419D02*
X136052360Y-85302419D01*
X136052360Y-85302419D02*
X136385693Y-86302419D01*
X136623789Y-85302419D02*
X137290455Y-85302419D01*
X137290455Y-85302419D02*
X136861884Y-86302419D01*
X130480265Y-86016704D02*
X130956455Y-86016704D01*
X130385027Y-86302419D02*
X130718360Y-85302419D01*
X130718360Y-85302419D02*
X131051693Y-86302419D01*
X131861217Y-85302419D02*
X131385027Y-85302419D01*
X131385027Y-85302419D02*
X131337408Y-85778609D01*
X131337408Y-85778609D02*
X131385027Y-85730990D01*
X131385027Y-85730990D02*
X131480265Y-85683371D01*
X131480265Y-85683371D02*
X131718360Y-85683371D01*
X131718360Y-85683371D02*
X131813598Y-85730990D01*
X131813598Y-85730990D02*
X131861217Y-85778609D01*
X131861217Y-85778609D02*
X131908836Y-85873847D01*
X131908836Y-85873847D02*
X131908836Y-86111942D01*
X131908836Y-86111942D02*
X131861217Y-86207180D01*
X131861217Y-86207180D02*
X131813598Y-86254800D01*
X131813598Y-86254800D02*
X131718360Y-86302419D01*
X131718360Y-86302419D02*
X131480265Y-86302419D01*
X131480265Y-86302419D02*
X131385027Y-86254800D01*
X131385027Y-86254800D02*
X131337408Y-86207180D01*
X95110476Y-68457419D02*
X95110476Y-67457419D01*
X95110476Y-67457419D02*
X95443809Y-68171704D01*
X95443809Y-68171704D02*
X95777142Y-67457419D01*
X95777142Y-67457419D02*
X95777142Y-68457419D01*
X96777142Y-68457419D02*
X96205714Y-68457419D01*
X96491428Y-68457419D02*
X96491428Y-67457419D01*
X96491428Y-67457419D02*
X96396190Y-67600276D01*
X96396190Y-67600276D02*
X96300952Y-67695514D01*
X96300952Y-67695514D02*
X96205714Y-67743133D01*
X93680931Y-71763847D02*
X93414265Y-71763847D01*
X93414265Y-72182895D02*
X93414265Y-71382895D01*
X93414265Y-71382895D02*
X93795217Y-71382895D01*
X94519026Y-71420990D02*
X94442836Y-71382895D01*
X94442836Y-71382895D02*
X94328550Y-71382895D01*
X94328550Y-71382895D02*
X94214264Y-71420990D01*
X94214264Y-71420990D02*
X94138074Y-71497180D01*
X94138074Y-71497180D02*
X94099979Y-71573371D01*
X94099979Y-71573371D02*
X94061883Y-71725752D01*
X94061883Y-71725752D02*
X94061883Y-71840038D01*
X94061883Y-71840038D02*
X94099979Y-71992419D01*
X94099979Y-71992419D02*
X94138074Y-72068609D01*
X94138074Y-72068609D02*
X94214264Y-72144800D01*
X94214264Y-72144800D02*
X94328550Y-72182895D01*
X94328550Y-72182895D02*
X94404741Y-72182895D01*
X94404741Y-72182895D02*
X94519026Y-72144800D01*
X94519026Y-72144800D02*
X94557122Y-72106704D01*
X94557122Y-72106704D02*
X94557122Y-71840038D01*
X94557122Y-71840038D02*
X94404741Y-71840038D01*
X90886931Y-71763847D02*
X91001217Y-71801942D01*
X91001217Y-71801942D02*
X91039312Y-71840038D01*
X91039312Y-71840038D02*
X91077408Y-71916228D01*
X91077408Y-71916228D02*
X91077408Y-72030514D01*
X91077408Y-72030514D02*
X91039312Y-72106704D01*
X91039312Y-72106704D02*
X91001217Y-72144800D01*
X91001217Y-72144800D02*
X90925027Y-72182895D01*
X90925027Y-72182895D02*
X90620265Y-72182895D01*
X90620265Y-72182895D02*
X90620265Y-71382895D01*
X90620265Y-71382895D02*
X90886931Y-71382895D01*
X90886931Y-71382895D02*
X90963122Y-71420990D01*
X90963122Y-71420990D02*
X91001217Y-71459085D01*
X91001217Y-71459085D02*
X91039312Y-71535276D01*
X91039312Y-71535276D02*
X91039312Y-71611466D01*
X91039312Y-71611466D02*
X91001217Y-71687657D01*
X91001217Y-71687657D02*
X90963122Y-71725752D01*
X90963122Y-71725752D02*
X90886931Y-71763847D01*
X90886931Y-71763847D02*
X90620265Y-71763847D01*
X91877408Y-72182895D02*
X91610741Y-71801942D01*
X91420265Y-72182895D02*
X91420265Y-71382895D01*
X91420265Y-71382895D02*
X91725027Y-71382895D01*
X91725027Y-71382895D02*
X91801217Y-71420990D01*
X91801217Y-71420990D02*
X91839312Y-71459085D01*
X91839312Y-71459085D02*
X91877408Y-71535276D01*
X91877408Y-71535276D02*
X91877408Y-71649561D01*
X91877408Y-71649561D02*
X91839312Y-71725752D01*
X91839312Y-71725752D02*
X91801217Y-71763847D01*
X91801217Y-71763847D02*
X91725027Y-71801942D01*
X91725027Y-71801942D02*
X91420265Y-71801942D01*
X92182169Y-71954323D02*
X92563122Y-71954323D01*
X92105979Y-72182895D02*
X92372646Y-71382895D01*
X92372646Y-71382895D02*
X92639312Y-72182895D01*
X98240265Y-72182895D02*
X98240265Y-71382895D01*
X98240265Y-71382895D02*
X98545027Y-71382895D01*
X98545027Y-71382895D02*
X98621217Y-71420990D01*
X98621217Y-71420990D02*
X98659312Y-71459085D01*
X98659312Y-71459085D02*
X98697408Y-71535276D01*
X98697408Y-71535276D02*
X98697408Y-71649561D01*
X98697408Y-71649561D02*
X98659312Y-71725752D01*
X98659312Y-71725752D02*
X98621217Y-71763847D01*
X98621217Y-71763847D02*
X98545027Y-71801942D01*
X98545027Y-71801942D02*
X98240265Y-71801942D01*
X98964074Y-71382895D02*
X99154550Y-72182895D01*
X99154550Y-72182895D02*
X99306931Y-71611466D01*
X99306931Y-71611466D02*
X99459312Y-72182895D01*
X99459312Y-72182895D02*
X99649789Y-71382895D01*
X99954551Y-72182895D02*
X99954551Y-71382895D01*
X99954551Y-71382895D02*
X100221217Y-71954323D01*
X100221217Y-71954323D02*
X100487884Y-71382895D01*
X100487884Y-71382895D02*
X100487884Y-72182895D01*
X95712931Y-71763847D02*
X95446265Y-71763847D01*
X95446265Y-72182895D02*
X95446265Y-71382895D01*
X95446265Y-71382895D02*
X95827217Y-71382895D01*
X96703407Y-71344800D02*
X96017693Y-72373371D01*
X97427217Y-72182895D02*
X97160550Y-71801942D01*
X96970074Y-72182895D02*
X96970074Y-71382895D01*
X96970074Y-71382895D02*
X97274836Y-71382895D01*
X97274836Y-71382895D02*
X97351026Y-71420990D01*
X97351026Y-71420990D02*
X97389121Y-71459085D01*
X97389121Y-71459085D02*
X97427217Y-71535276D01*
X97427217Y-71535276D02*
X97427217Y-71649561D01*
X97427217Y-71649561D02*
X97389121Y-71725752D01*
X97389121Y-71725752D02*
X97351026Y-71763847D01*
X97351026Y-71763847D02*
X97274836Y-71801942D01*
X97274836Y-71801942D02*
X96970074Y-71801942D01*
X106110476Y-68457419D02*
X106110476Y-67457419D01*
X106110476Y-67457419D02*
X106443809Y-68171704D01*
X106443809Y-68171704D02*
X106777142Y-67457419D01*
X106777142Y-67457419D02*
X106777142Y-68457419D01*
X107205714Y-67552657D02*
X107253333Y-67505038D01*
X107253333Y-67505038D02*
X107348571Y-67457419D01*
X107348571Y-67457419D02*
X107586666Y-67457419D01*
X107586666Y-67457419D02*
X107681904Y-67505038D01*
X107681904Y-67505038D02*
X107729523Y-67552657D01*
X107729523Y-67552657D02*
X107777142Y-67647895D01*
X107777142Y-67647895D02*
X107777142Y-67743133D01*
X107777142Y-67743133D02*
X107729523Y-67885990D01*
X107729523Y-67885990D02*
X107158095Y-68457419D01*
X107158095Y-68457419D02*
X107777142Y-68457419D01*
X104680931Y-71763847D02*
X104414265Y-71763847D01*
X104414265Y-72182895D02*
X104414265Y-71382895D01*
X104414265Y-71382895D02*
X104795217Y-71382895D01*
X105519026Y-71420990D02*
X105442836Y-71382895D01*
X105442836Y-71382895D02*
X105328550Y-71382895D01*
X105328550Y-71382895D02*
X105214264Y-71420990D01*
X105214264Y-71420990D02*
X105138074Y-71497180D01*
X105138074Y-71497180D02*
X105099979Y-71573371D01*
X105099979Y-71573371D02*
X105061883Y-71725752D01*
X105061883Y-71725752D02*
X105061883Y-71840038D01*
X105061883Y-71840038D02*
X105099979Y-71992419D01*
X105099979Y-71992419D02*
X105138074Y-72068609D01*
X105138074Y-72068609D02*
X105214264Y-72144800D01*
X105214264Y-72144800D02*
X105328550Y-72182895D01*
X105328550Y-72182895D02*
X105404741Y-72182895D01*
X105404741Y-72182895D02*
X105519026Y-72144800D01*
X105519026Y-72144800D02*
X105557122Y-72106704D01*
X105557122Y-72106704D02*
X105557122Y-71840038D01*
X105557122Y-71840038D02*
X105404741Y-71840038D01*
X101886931Y-71763847D02*
X102001217Y-71801942D01*
X102001217Y-71801942D02*
X102039312Y-71840038D01*
X102039312Y-71840038D02*
X102077408Y-71916228D01*
X102077408Y-71916228D02*
X102077408Y-72030514D01*
X102077408Y-72030514D02*
X102039312Y-72106704D01*
X102039312Y-72106704D02*
X102001217Y-72144800D01*
X102001217Y-72144800D02*
X101925027Y-72182895D01*
X101925027Y-72182895D02*
X101620265Y-72182895D01*
X101620265Y-72182895D02*
X101620265Y-71382895D01*
X101620265Y-71382895D02*
X101886931Y-71382895D01*
X101886931Y-71382895D02*
X101963122Y-71420990D01*
X101963122Y-71420990D02*
X102001217Y-71459085D01*
X102001217Y-71459085D02*
X102039312Y-71535276D01*
X102039312Y-71535276D02*
X102039312Y-71611466D01*
X102039312Y-71611466D02*
X102001217Y-71687657D01*
X102001217Y-71687657D02*
X101963122Y-71725752D01*
X101963122Y-71725752D02*
X101886931Y-71763847D01*
X101886931Y-71763847D02*
X101620265Y-71763847D01*
X102877408Y-72182895D02*
X102610741Y-71801942D01*
X102420265Y-72182895D02*
X102420265Y-71382895D01*
X102420265Y-71382895D02*
X102725027Y-71382895D01*
X102725027Y-71382895D02*
X102801217Y-71420990D01*
X102801217Y-71420990D02*
X102839312Y-71459085D01*
X102839312Y-71459085D02*
X102877408Y-71535276D01*
X102877408Y-71535276D02*
X102877408Y-71649561D01*
X102877408Y-71649561D02*
X102839312Y-71725752D01*
X102839312Y-71725752D02*
X102801217Y-71763847D01*
X102801217Y-71763847D02*
X102725027Y-71801942D01*
X102725027Y-71801942D02*
X102420265Y-71801942D01*
X103182169Y-71954323D02*
X103563122Y-71954323D01*
X103105979Y-72182895D02*
X103372646Y-71382895D01*
X103372646Y-71382895D02*
X103639312Y-72182895D01*
X106712931Y-71763847D02*
X106446265Y-71763847D01*
X106446265Y-72182895D02*
X106446265Y-71382895D01*
X106446265Y-71382895D02*
X106827217Y-71382895D01*
X107703407Y-71344800D02*
X107017693Y-72373371D01*
X108427217Y-72182895D02*
X108160550Y-71801942D01*
X107970074Y-72182895D02*
X107970074Y-71382895D01*
X107970074Y-71382895D02*
X108274836Y-71382895D01*
X108274836Y-71382895D02*
X108351026Y-71420990D01*
X108351026Y-71420990D02*
X108389121Y-71459085D01*
X108389121Y-71459085D02*
X108427217Y-71535276D01*
X108427217Y-71535276D02*
X108427217Y-71649561D01*
X108427217Y-71649561D02*
X108389121Y-71725752D01*
X108389121Y-71725752D02*
X108351026Y-71763847D01*
X108351026Y-71763847D02*
X108274836Y-71801942D01*
X108274836Y-71801942D02*
X107970074Y-71801942D01*
X109240265Y-72182895D02*
X109240265Y-71382895D01*
X109240265Y-71382895D02*
X109545027Y-71382895D01*
X109545027Y-71382895D02*
X109621217Y-71420990D01*
X109621217Y-71420990D02*
X109659312Y-71459085D01*
X109659312Y-71459085D02*
X109697408Y-71535276D01*
X109697408Y-71535276D02*
X109697408Y-71649561D01*
X109697408Y-71649561D02*
X109659312Y-71725752D01*
X109659312Y-71725752D02*
X109621217Y-71763847D01*
X109621217Y-71763847D02*
X109545027Y-71801942D01*
X109545027Y-71801942D02*
X109240265Y-71801942D01*
X109964074Y-71382895D02*
X110154550Y-72182895D01*
X110154550Y-72182895D02*
X110306931Y-71611466D01*
X110306931Y-71611466D02*
X110459312Y-72182895D01*
X110459312Y-72182895D02*
X110649789Y-71382895D01*
X110954551Y-72182895D02*
X110954551Y-71382895D01*
X110954551Y-71382895D02*
X111221217Y-71954323D01*
X111221217Y-71954323D02*
X111487884Y-71382895D01*
X111487884Y-71382895D02*
X111487884Y-72182895D01*
X149190095Y-84679419D02*
X149190095Y-85488942D01*
X149190095Y-85488942D02*
X149237714Y-85584180D01*
X149237714Y-85584180D02*
X149285333Y-85631800D01*
X149285333Y-85631800D02*
X149380571Y-85679419D01*
X149380571Y-85679419D02*
X149571047Y-85679419D01*
X149571047Y-85679419D02*
X149666285Y-85631800D01*
X149666285Y-85631800D02*
X149713904Y-85584180D01*
X149713904Y-85584180D02*
X149761523Y-85488942D01*
X149761523Y-85488942D02*
X149761523Y-84679419D01*
X150666285Y-85012752D02*
X150666285Y-85679419D01*
X150428190Y-84631800D02*
X150190095Y-85346085D01*
X150190095Y-85346085D02*
X150809142Y-85346085D01*
X152202169Y-88890800D02*
X152316455Y-88928895D01*
X152316455Y-88928895D02*
X152506931Y-88928895D01*
X152506931Y-88928895D02*
X152583122Y-88890800D01*
X152583122Y-88890800D02*
X152621217Y-88852704D01*
X152621217Y-88852704D02*
X152659312Y-88776514D01*
X152659312Y-88776514D02*
X152659312Y-88700323D01*
X152659312Y-88700323D02*
X152621217Y-88624133D01*
X152621217Y-88624133D02*
X152583122Y-88586038D01*
X152583122Y-88586038D02*
X152506931Y-88547942D01*
X152506931Y-88547942D02*
X152354550Y-88509847D01*
X152354550Y-88509847D02*
X152278360Y-88471752D01*
X152278360Y-88471752D02*
X152240265Y-88433657D01*
X152240265Y-88433657D02*
X152202169Y-88357466D01*
X152202169Y-88357466D02*
X152202169Y-88281276D01*
X152202169Y-88281276D02*
X152240265Y-88205085D01*
X152240265Y-88205085D02*
X152278360Y-88166990D01*
X152278360Y-88166990D02*
X152354550Y-88128895D01*
X152354550Y-88128895D02*
X152545027Y-88128895D01*
X152545027Y-88128895D02*
X152659312Y-88166990D01*
X153002170Y-88928895D02*
X153002170Y-88128895D01*
X153002170Y-88128895D02*
X153192646Y-88128895D01*
X153192646Y-88128895D02*
X153306932Y-88166990D01*
X153306932Y-88166990D02*
X153383122Y-88243180D01*
X153383122Y-88243180D02*
X153421217Y-88319371D01*
X153421217Y-88319371D02*
X153459313Y-88471752D01*
X153459313Y-88471752D02*
X153459313Y-88586038D01*
X153459313Y-88586038D02*
X153421217Y-88738419D01*
X153421217Y-88738419D02*
X153383122Y-88814609D01*
X153383122Y-88814609D02*
X153306932Y-88890800D01*
X153306932Y-88890800D02*
X153192646Y-88928895D01*
X153192646Y-88928895D02*
X153002170Y-88928895D01*
X153764074Y-88700323D02*
X154145027Y-88700323D01*
X153687884Y-88928895D02*
X153954551Y-88128895D01*
X153954551Y-88128895D02*
X154221217Y-88928895D01*
X147325312Y-88166990D02*
X147249122Y-88128895D01*
X147249122Y-88128895D02*
X147134836Y-88128895D01*
X147134836Y-88128895D02*
X147020550Y-88166990D01*
X147020550Y-88166990D02*
X146944360Y-88243180D01*
X146944360Y-88243180D02*
X146906265Y-88319371D01*
X146906265Y-88319371D02*
X146868169Y-88471752D01*
X146868169Y-88471752D02*
X146868169Y-88586038D01*
X146868169Y-88586038D02*
X146906265Y-88738419D01*
X146906265Y-88738419D02*
X146944360Y-88814609D01*
X146944360Y-88814609D02*
X147020550Y-88890800D01*
X147020550Y-88890800D02*
X147134836Y-88928895D01*
X147134836Y-88928895D02*
X147211027Y-88928895D01*
X147211027Y-88928895D02*
X147325312Y-88890800D01*
X147325312Y-88890800D02*
X147363408Y-88852704D01*
X147363408Y-88852704D02*
X147363408Y-88586038D01*
X147363408Y-88586038D02*
X147211027Y-88586038D01*
X147706265Y-88928895D02*
X147706265Y-88128895D01*
X147706265Y-88128895D02*
X148163408Y-88928895D01*
X148163408Y-88928895D02*
X148163408Y-88128895D01*
X148544360Y-88928895D02*
X148544360Y-88128895D01*
X148544360Y-88128895D02*
X148734836Y-88128895D01*
X148734836Y-88128895D02*
X148849122Y-88166990D01*
X148849122Y-88166990D02*
X148925312Y-88243180D01*
X148925312Y-88243180D02*
X148963407Y-88319371D01*
X148963407Y-88319371D02*
X149001503Y-88471752D01*
X149001503Y-88471752D02*
X149001503Y-88586038D01*
X149001503Y-88586038D02*
X148963407Y-88738419D01*
X148963407Y-88738419D02*
X148925312Y-88814609D01*
X148925312Y-88814609D02*
X148849122Y-88890800D01*
X148849122Y-88890800D02*
X148734836Y-88928895D01*
X148734836Y-88928895D02*
X148544360Y-88928895D01*
X149662169Y-88890800D02*
X149776455Y-88928895D01*
X149776455Y-88928895D02*
X149966931Y-88928895D01*
X149966931Y-88928895D02*
X150043122Y-88890800D01*
X150043122Y-88890800D02*
X150081217Y-88852704D01*
X150081217Y-88852704D02*
X150119312Y-88776514D01*
X150119312Y-88776514D02*
X150119312Y-88700323D01*
X150119312Y-88700323D02*
X150081217Y-88624133D01*
X150081217Y-88624133D02*
X150043122Y-88586038D01*
X150043122Y-88586038D02*
X149966931Y-88547942D01*
X149966931Y-88547942D02*
X149814550Y-88509847D01*
X149814550Y-88509847D02*
X149738360Y-88471752D01*
X149738360Y-88471752D02*
X149700265Y-88433657D01*
X149700265Y-88433657D02*
X149662169Y-88357466D01*
X149662169Y-88357466D02*
X149662169Y-88281276D01*
X149662169Y-88281276D02*
X149700265Y-88205085D01*
X149700265Y-88205085D02*
X149738360Y-88166990D01*
X149738360Y-88166990D02*
X149814550Y-88128895D01*
X149814550Y-88128895D02*
X150005027Y-88128895D01*
X150005027Y-88128895D02*
X150119312Y-88166990D01*
X150919313Y-88852704D02*
X150881217Y-88890800D01*
X150881217Y-88890800D02*
X150766932Y-88928895D01*
X150766932Y-88928895D02*
X150690741Y-88928895D01*
X150690741Y-88928895D02*
X150576455Y-88890800D01*
X150576455Y-88890800D02*
X150500265Y-88814609D01*
X150500265Y-88814609D02*
X150462170Y-88738419D01*
X150462170Y-88738419D02*
X150424074Y-88586038D01*
X150424074Y-88586038D02*
X150424074Y-88471752D01*
X150424074Y-88471752D02*
X150462170Y-88319371D01*
X150462170Y-88319371D02*
X150500265Y-88243180D01*
X150500265Y-88243180D02*
X150576455Y-88166990D01*
X150576455Y-88166990D02*
X150690741Y-88128895D01*
X150690741Y-88128895D02*
X150766932Y-88128895D01*
X150766932Y-88128895D02*
X150881217Y-88166990D01*
X150881217Y-88166990D02*
X150919313Y-88205085D01*
X151643122Y-88928895D02*
X151262170Y-88928895D01*
X151262170Y-88928895D02*
X151262170Y-88128895D01*
X145255217Y-88128895D02*
X144874265Y-88128895D01*
X144874265Y-88128895D02*
X144836169Y-88509847D01*
X144836169Y-88509847D02*
X144874265Y-88471752D01*
X144874265Y-88471752D02*
X144950455Y-88433657D01*
X144950455Y-88433657D02*
X145140931Y-88433657D01*
X145140931Y-88433657D02*
X145217122Y-88471752D01*
X145217122Y-88471752D02*
X145255217Y-88509847D01*
X145255217Y-88509847D02*
X145293312Y-88586038D01*
X145293312Y-88586038D02*
X145293312Y-88776514D01*
X145293312Y-88776514D02*
X145255217Y-88852704D01*
X145255217Y-88852704D02*
X145217122Y-88890800D01*
X145217122Y-88890800D02*
X145140931Y-88928895D01*
X145140931Y-88928895D02*
X144950455Y-88928895D01*
X144950455Y-88928895D02*
X144874265Y-88890800D01*
X144874265Y-88890800D02*
X144836169Y-88852704D01*
X145521884Y-88128895D02*
X145788551Y-88928895D01*
X145788551Y-88928895D02*
X146055217Y-88128895D01*
X91817419Y-107061904D02*
X92626942Y-107061904D01*
X92626942Y-107061904D02*
X92722180Y-107014285D01*
X92722180Y-107014285D02*
X92769800Y-106966666D01*
X92769800Y-106966666D02*
X92817419Y-106871428D01*
X92817419Y-106871428D02*
X92817419Y-106680952D01*
X92817419Y-106680952D02*
X92769800Y-106585714D01*
X92769800Y-106585714D02*
X92722180Y-106538095D01*
X92722180Y-106538095D02*
X92626942Y-106490476D01*
X92626942Y-106490476D02*
X91817419Y-106490476D01*
X92817419Y-105490476D02*
X92817419Y-106061904D01*
X92817419Y-105776190D02*
X91817419Y-105776190D01*
X91817419Y-105776190D02*
X91960276Y-105871428D01*
X91960276Y-105871428D02*
X92055514Y-105966666D01*
X92055514Y-105966666D02*
X92103133Y-106061904D01*
X92322973Y-81037419D02*
X92322973Y-81846942D01*
X92322973Y-81846942D02*
X92370592Y-81942180D01*
X92370592Y-81942180D02*
X92418211Y-81989800D01*
X92418211Y-81989800D02*
X92513449Y-82037419D01*
X92513449Y-82037419D02*
X92703925Y-82037419D01*
X92703925Y-82037419D02*
X92799163Y-81989800D01*
X92799163Y-81989800D02*
X92846782Y-81942180D01*
X92846782Y-81942180D02*
X92894401Y-81846942D01*
X92894401Y-81846942D02*
X92894401Y-81037419D01*
X93322973Y-81132657D02*
X93370592Y-81085038D01*
X93370592Y-81085038D02*
X93465830Y-81037419D01*
X93465830Y-81037419D02*
X93703925Y-81037419D01*
X93703925Y-81037419D02*
X93799163Y-81085038D01*
X93799163Y-81085038D02*
X93846782Y-81132657D01*
X93846782Y-81132657D02*
X93894401Y-81227895D01*
X93894401Y-81227895D02*
X93894401Y-81323133D01*
X93894401Y-81323133D02*
X93846782Y-81465990D01*
X93846782Y-81465990D02*
X93275354Y-82037419D01*
X93275354Y-82037419D02*
X93894401Y-82037419D01*
X103747217Y-76888609D02*
X103890074Y-76936228D01*
X103890074Y-76936228D02*
X103937693Y-76983847D01*
X103937693Y-76983847D02*
X103985312Y-77079085D01*
X103985312Y-77079085D02*
X103985312Y-77221942D01*
X103985312Y-77221942D02*
X103937693Y-77317180D01*
X103937693Y-77317180D02*
X103890074Y-77364800D01*
X103890074Y-77364800D02*
X103794836Y-77412419D01*
X103794836Y-77412419D02*
X103413884Y-77412419D01*
X103413884Y-77412419D02*
X103413884Y-76412419D01*
X103413884Y-76412419D02*
X103747217Y-76412419D01*
X103747217Y-76412419D02*
X103842455Y-76460038D01*
X103842455Y-76460038D02*
X103890074Y-76507657D01*
X103890074Y-76507657D02*
X103937693Y-76602895D01*
X103937693Y-76602895D02*
X103937693Y-76698133D01*
X103937693Y-76698133D02*
X103890074Y-76793371D01*
X103890074Y-76793371D02*
X103842455Y-76840990D01*
X103842455Y-76840990D02*
X103747217Y-76888609D01*
X103747217Y-76888609D02*
X103413884Y-76888609D01*
X104890074Y-76412419D02*
X104413884Y-76412419D01*
X104413884Y-76412419D02*
X104366265Y-76888609D01*
X104366265Y-76888609D02*
X104413884Y-76840990D01*
X104413884Y-76840990D02*
X104509122Y-76793371D01*
X104509122Y-76793371D02*
X104747217Y-76793371D01*
X104747217Y-76793371D02*
X104842455Y-76840990D01*
X104842455Y-76840990D02*
X104890074Y-76888609D01*
X104890074Y-76888609D02*
X104937693Y-76983847D01*
X104937693Y-76983847D02*
X104937693Y-77221942D01*
X104937693Y-77221942D02*
X104890074Y-77317180D01*
X104890074Y-77317180D02*
X104842455Y-77364800D01*
X104842455Y-77364800D02*
X104747217Y-77412419D01*
X104747217Y-77412419D02*
X104509122Y-77412419D01*
X104509122Y-77412419D02*
X104413884Y-77364800D01*
X104413884Y-77364800D02*
X104366265Y-77317180D01*
X103620265Y-86016704D02*
X104096455Y-86016704D01*
X103525027Y-86302419D02*
X103858360Y-85302419D01*
X103858360Y-85302419D02*
X104191693Y-86302419D01*
X105001217Y-85302419D02*
X104525027Y-85302419D01*
X104525027Y-85302419D02*
X104477408Y-85778609D01*
X104477408Y-85778609D02*
X104525027Y-85730990D01*
X104525027Y-85730990D02*
X104620265Y-85683371D01*
X104620265Y-85683371D02*
X104858360Y-85683371D01*
X104858360Y-85683371D02*
X104953598Y-85730990D01*
X104953598Y-85730990D02*
X105001217Y-85778609D01*
X105001217Y-85778609D02*
X105048836Y-85873847D01*
X105048836Y-85873847D02*
X105048836Y-86111942D01*
X105048836Y-86111942D02*
X105001217Y-86207180D01*
X105001217Y-86207180D02*
X104953598Y-86254800D01*
X104953598Y-86254800D02*
X104858360Y-86302419D01*
X104858360Y-86302419D02*
X104620265Y-86302419D01*
X104620265Y-86302419D02*
X104525027Y-86254800D01*
X104525027Y-86254800D02*
X104477408Y-86207180D01*
X113727693Y-76420038D02*
X113632455Y-76372419D01*
X113632455Y-76372419D02*
X113489598Y-76372419D01*
X113489598Y-76372419D02*
X113346741Y-76420038D01*
X113346741Y-76420038D02*
X113251503Y-76515276D01*
X113251503Y-76515276D02*
X113203884Y-76610514D01*
X113203884Y-76610514D02*
X113156265Y-76800990D01*
X113156265Y-76800990D02*
X113156265Y-76943847D01*
X113156265Y-76943847D02*
X113203884Y-77134323D01*
X113203884Y-77134323D02*
X113251503Y-77229561D01*
X113251503Y-77229561D02*
X113346741Y-77324800D01*
X113346741Y-77324800D02*
X113489598Y-77372419D01*
X113489598Y-77372419D02*
X113584836Y-77372419D01*
X113584836Y-77372419D02*
X113727693Y-77324800D01*
X113727693Y-77324800D02*
X113775312Y-77277180D01*
X113775312Y-77277180D02*
X113775312Y-76943847D01*
X113775312Y-76943847D02*
X113584836Y-76943847D01*
X114203884Y-77372419D02*
X114203884Y-76372419D01*
X114203884Y-76372419D02*
X114775312Y-77372419D01*
X114775312Y-77372419D02*
X114775312Y-76372419D01*
X115251503Y-77372419D02*
X115251503Y-76372419D01*
X115251503Y-76372419D02*
X115489598Y-76372419D01*
X115489598Y-76372419D02*
X115632455Y-76420038D01*
X115632455Y-76420038D02*
X115727693Y-76515276D01*
X115727693Y-76515276D02*
X115775312Y-76610514D01*
X115775312Y-76610514D02*
X115822931Y-76800990D01*
X115822931Y-76800990D02*
X115822931Y-76943847D01*
X115822931Y-76943847D02*
X115775312Y-77134323D01*
X115775312Y-77134323D02*
X115727693Y-77229561D01*
X115727693Y-77229561D02*
X115632455Y-77324800D01*
X115632455Y-77324800D02*
X115489598Y-77372419D01*
X115489598Y-77372419D02*
X115251503Y-77372419D01*
X108827217Y-76888609D02*
X108970074Y-76936228D01*
X108970074Y-76936228D02*
X109017693Y-76983847D01*
X109017693Y-76983847D02*
X109065312Y-77079085D01*
X109065312Y-77079085D02*
X109065312Y-77221942D01*
X109065312Y-77221942D02*
X109017693Y-77317180D01*
X109017693Y-77317180D02*
X108970074Y-77364800D01*
X108970074Y-77364800D02*
X108874836Y-77412419D01*
X108874836Y-77412419D02*
X108493884Y-77412419D01*
X108493884Y-77412419D02*
X108493884Y-76412419D01*
X108493884Y-76412419D02*
X108827217Y-76412419D01*
X108827217Y-76412419D02*
X108922455Y-76460038D01*
X108922455Y-76460038D02*
X108970074Y-76507657D01*
X108970074Y-76507657D02*
X109017693Y-76602895D01*
X109017693Y-76602895D02*
X109017693Y-76698133D01*
X109017693Y-76698133D02*
X108970074Y-76793371D01*
X108970074Y-76793371D02*
X108922455Y-76840990D01*
X108922455Y-76840990D02*
X108827217Y-76888609D01*
X108827217Y-76888609D02*
X108493884Y-76888609D01*
X109398646Y-76412419D02*
X110065312Y-76412419D01*
X110065312Y-76412419D02*
X109636741Y-77412419D01*
X93587217Y-76888609D02*
X93730074Y-76936228D01*
X93730074Y-76936228D02*
X93777693Y-76983847D01*
X93777693Y-76983847D02*
X93825312Y-77079085D01*
X93825312Y-77079085D02*
X93825312Y-77221942D01*
X93825312Y-77221942D02*
X93777693Y-77317180D01*
X93777693Y-77317180D02*
X93730074Y-77364800D01*
X93730074Y-77364800D02*
X93634836Y-77412419D01*
X93634836Y-77412419D02*
X93253884Y-77412419D01*
X93253884Y-77412419D02*
X93253884Y-76412419D01*
X93253884Y-76412419D02*
X93587217Y-76412419D01*
X93587217Y-76412419D02*
X93682455Y-76460038D01*
X93682455Y-76460038D02*
X93730074Y-76507657D01*
X93730074Y-76507657D02*
X93777693Y-76602895D01*
X93777693Y-76602895D02*
X93777693Y-76698133D01*
X93777693Y-76698133D02*
X93730074Y-76793371D01*
X93730074Y-76793371D02*
X93682455Y-76840990D01*
X93682455Y-76840990D02*
X93587217Y-76888609D01*
X93587217Y-76888609D02*
X93253884Y-76888609D01*
X94777693Y-77412419D02*
X94206265Y-77412419D01*
X94491979Y-77412419D02*
X94491979Y-76412419D01*
X94491979Y-76412419D02*
X94396741Y-76555276D01*
X94396741Y-76555276D02*
X94301503Y-76650514D01*
X94301503Y-76650514D02*
X94206265Y-76698133D01*
X101207217Y-76888609D02*
X101350074Y-76936228D01*
X101350074Y-76936228D02*
X101397693Y-76983847D01*
X101397693Y-76983847D02*
X101445312Y-77079085D01*
X101445312Y-77079085D02*
X101445312Y-77221942D01*
X101445312Y-77221942D02*
X101397693Y-77317180D01*
X101397693Y-77317180D02*
X101350074Y-77364800D01*
X101350074Y-77364800D02*
X101254836Y-77412419D01*
X101254836Y-77412419D02*
X100873884Y-77412419D01*
X100873884Y-77412419D02*
X100873884Y-76412419D01*
X100873884Y-76412419D02*
X101207217Y-76412419D01*
X101207217Y-76412419D02*
X101302455Y-76460038D01*
X101302455Y-76460038D02*
X101350074Y-76507657D01*
X101350074Y-76507657D02*
X101397693Y-76602895D01*
X101397693Y-76602895D02*
X101397693Y-76698133D01*
X101397693Y-76698133D02*
X101350074Y-76793371D01*
X101350074Y-76793371D02*
X101302455Y-76840990D01*
X101302455Y-76840990D02*
X101207217Y-76888609D01*
X101207217Y-76888609D02*
X100873884Y-76888609D01*
X102302455Y-76745752D02*
X102302455Y-77412419D01*
X102064360Y-76364800D02*
X101826265Y-77079085D01*
X101826265Y-77079085D02*
X102445312Y-77079085D01*
X96000265Y-86016704D02*
X96476455Y-86016704D01*
X95905027Y-86302419D02*
X96238360Y-85302419D01*
X96238360Y-85302419D02*
X96571693Y-86302419D01*
X96857408Y-85397657D02*
X96905027Y-85350038D01*
X96905027Y-85350038D02*
X97000265Y-85302419D01*
X97000265Y-85302419D02*
X97238360Y-85302419D01*
X97238360Y-85302419D02*
X97333598Y-85350038D01*
X97333598Y-85350038D02*
X97381217Y-85397657D01*
X97381217Y-85397657D02*
X97428836Y-85492895D01*
X97428836Y-85492895D02*
X97428836Y-85588133D01*
X97428836Y-85588133D02*
X97381217Y-85730990D01*
X97381217Y-85730990D02*
X96809789Y-86302419D01*
X96809789Y-86302419D02*
X97428836Y-86302419D01*
X101080265Y-86016704D02*
X101556455Y-86016704D01*
X100985027Y-86302419D02*
X101318360Y-85302419D01*
X101318360Y-85302419D02*
X101651693Y-86302419D01*
X102413598Y-85635752D02*
X102413598Y-86302419D01*
X102175503Y-85254800D02*
X101937408Y-85969085D01*
X101937408Y-85969085D02*
X102556455Y-85969085D01*
X106287217Y-76888609D02*
X106430074Y-76936228D01*
X106430074Y-76936228D02*
X106477693Y-76983847D01*
X106477693Y-76983847D02*
X106525312Y-77079085D01*
X106525312Y-77079085D02*
X106525312Y-77221942D01*
X106525312Y-77221942D02*
X106477693Y-77317180D01*
X106477693Y-77317180D02*
X106430074Y-77364800D01*
X106430074Y-77364800D02*
X106334836Y-77412419D01*
X106334836Y-77412419D02*
X105953884Y-77412419D01*
X105953884Y-77412419D02*
X105953884Y-76412419D01*
X105953884Y-76412419D02*
X106287217Y-76412419D01*
X106287217Y-76412419D02*
X106382455Y-76460038D01*
X106382455Y-76460038D02*
X106430074Y-76507657D01*
X106430074Y-76507657D02*
X106477693Y-76602895D01*
X106477693Y-76602895D02*
X106477693Y-76698133D01*
X106477693Y-76698133D02*
X106430074Y-76793371D01*
X106430074Y-76793371D02*
X106382455Y-76840990D01*
X106382455Y-76840990D02*
X106287217Y-76888609D01*
X106287217Y-76888609D02*
X105953884Y-76888609D01*
X107382455Y-76412419D02*
X107191979Y-76412419D01*
X107191979Y-76412419D02*
X107096741Y-76460038D01*
X107096741Y-76460038D02*
X107049122Y-76507657D01*
X107049122Y-76507657D02*
X106953884Y-76650514D01*
X106953884Y-76650514D02*
X106906265Y-76840990D01*
X106906265Y-76840990D02*
X106906265Y-77221942D01*
X106906265Y-77221942D02*
X106953884Y-77317180D01*
X106953884Y-77317180D02*
X107001503Y-77364800D01*
X107001503Y-77364800D02*
X107096741Y-77412419D01*
X107096741Y-77412419D02*
X107287217Y-77412419D01*
X107287217Y-77412419D02*
X107382455Y-77364800D01*
X107382455Y-77364800D02*
X107430074Y-77317180D01*
X107430074Y-77317180D02*
X107477693Y-77221942D01*
X107477693Y-77221942D02*
X107477693Y-76983847D01*
X107477693Y-76983847D02*
X107430074Y-76888609D01*
X107430074Y-76888609D02*
X107382455Y-76840990D01*
X107382455Y-76840990D02*
X107287217Y-76793371D01*
X107287217Y-76793371D02*
X107096741Y-76793371D01*
X107096741Y-76793371D02*
X107001503Y-76840990D01*
X107001503Y-76840990D02*
X106953884Y-76888609D01*
X106953884Y-76888609D02*
X106906265Y-76983847D01*
X98540265Y-86016704D02*
X99016455Y-86016704D01*
X98445027Y-86302419D02*
X98778360Y-85302419D01*
X98778360Y-85302419D02*
X99111693Y-86302419D01*
X99349789Y-85302419D02*
X99968836Y-85302419D01*
X99968836Y-85302419D02*
X99635503Y-85683371D01*
X99635503Y-85683371D02*
X99778360Y-85683371D01*
X99778360Y-85683371D02*
X99873598Y-85730990D01*
X99873598Y-85730990D02*
X99921217Y-85778609D01*
X99921217Y-85778609D02*
X99968836Y-85873847D01*
X99968836Y-85873847D02*
X99968836Y-86111942D01*
X99968836Y-86111942D02*
X99921217Y-86207180D01*
X99921217Y-86207180D02*
X99873598Y-86254800D01*
X99873598Y-86254800D02*
X99778360Y-86302419D01*
X99778360Y-86302419D02*
X99492646Y-86302419D01*
X99492646Y-86302419D02*
X99397408Y-86254800D01*
X99397408Y-86254800D02*
X99349789Y-86207180D01*
X93714265Y-86016704D02*
X94190455Y-86016704D01*
X93619027Y-86302419D02*
X93952360Y-85302419D01*
X93952360Y-85302419D02*
X94285693Y-86302419D01*
X95142836Y-86302419D02*
X94571408Y-86302419D01*
X94857122Y-86302419D02*
X94857122Y-85302419D01*
X94857122Y-85302419D02*
X94761884Y-85445276D01*
X94761884Y-85445276D02*
X94666646Y-85540514D01*
X94666646Y-85540514D02*
X94571408Y-85588133D01*
X111367217Y-76888609D02*
X111510074Y-76936228D01*
X111510074Y-76936228D02*
X111557693Y-76983847D01*
X111557693Y-76983847D02*
X111605312Y-77079085D01*
X111605312Y-77079085D02*
X111605312Y-77221942D01*
X111605312Y-77221942D02*
X111557693Y-77317180D01*
X111557693Y-77317180D02*
X111510074Y-77364800D01*
X111510074Y-77364800D02*
X111414836Y-77412419D01*
X111414836Y-77412419D02*
X111033884Y-77412419D01*
X111033884Y-77412419D02*
X111033884Y-76412419D01*
X111033884Y-76412419D02*
X111367217Y-76412419D01*
X111367217Y-76412419D02*
X111462455Y-76460038D01*
X111462455Y-76460038D02*
X111510074Y-76507657D01*
X111510074Y-76507657D02*
X111557693Y-76602895D01*
X111557693Y-76602895D02*
X111557693Y-76698133D01*
X111557693Y-76698133D02*
X111510074Y-76793371D01*
X111510074Y-76793371D02*
X111462455Y-76840990D01*
X111462455Y-76840990D02*
X111367217Y-76888609D01*
X111367217Y-76888609D02*
X111033884Y-76888609D01*
X112176741Y-76840990D02*
X112081503Y-76793371D01*
X112081503Y-76793371D02*
X112033884Y-76745752D01*
X112033884Y-76745752D02*
X111986265Y-76650514D01*
X111986265Y-76650514D02*
X111986265Y-76602895D01*
X111986265Y-76602895D02*
X112033884Y-76507657D01*
X112033884Y-76507657D02*
X112081503Y-76460038D01*
X112081503Y-76460038D02*
X112176741Y-76412419D01*
X112176741Y-76412419D02*
X112367217Y-76412419D01*
X112367217Y-76412419D02*
X112462455Y-76460038D01*
X112462455Y-76460038D02*
X112510074Y-76507657D01*
X112510074Y-76507657D02*
X112557693Y-76602895D01*
X112557693Y-76602895D02*
X112557693Y-76650514D01*
X112557693Y-76650514D02*
X112510074Y-76745752D01*
X112510074Y-76745752D02*
X112462455Y-76793371D01*
X112462455Y-76793371D02*
X112367217Y-76840990D01*
X112367217Y-76840990D02*
X112176741Y-76840990D01*
X112176741Y-76840990D02*
X112081503Y-76888609D01*
X112081503Y-76888609D02*
X112033884Y-76936228D01*
X112033884Y-76936228D02*
X111986265Y-77031466D01*
X111986265Y-77031466D02*
X111986265Y-77221942D01*
X111986265Y-77221942D02*
X112033884Y-77317180D01*
X112033884Y-77317180D02*
X112081503Y-77364800D01*
X112081503Y-77364800D02*
X112176741Y-77412419D01*
X112176741Y-77412419D02*
X112367217Y-77412419D01*
X112367217Y-77412419D02*
X112462455Y-77364800D01*
X112462455Y-77364800D02*
X112510074Y-77317180D01*
X112510074Y-77317180D02*
X112557693Y-77221942D01*
X112557693Y-77221942D02*
X112557693Y-77031466D01*
X112557693Y-77031466D02*
X112510074Y-76936228D01*
X112510074Y-76936228D02*
X112462455Y-76888609D01*
X112462455Y-76888609D02*
X112367217Y-76840990D01*
X90571027Y-76412419D02*
X90904360Y-77412419D01*
X90904360Y-77412419D02*
X91237693Y-76412419D01*
X91904360Y-76888609D02*
X92047217Y-76936228D01*
X92047217Y-76936228D02*
X92094836Y-76983847D01*
X92094836Y-76983847D02*
X92142455Y-77079085D01*
X92142455Y-77079085D02*
X92142455Y-77221942D01*
X92142455Y-77221942D02*
X92094836Y-77317180D01*
X92094836Y-77317180D02*
X92047217Y-77364800D01*
X92047217Y-77364800D02*
X91951979Y-77412419D01*
X91951979Y-77412419D02*
X91571027Y-77412419D01*
X91571027Y-77412419D02*
X91571027Y-76412419D01*
X91571027Y-76412419D02*
X91904360Y-76412419D01*
X91904360Y-76412419D02*
X91999598Y-76460038D01*
X91999598Y-76460038D02*
X92047217Y-76507657D01*
X92047217Y-76507657D02*
X92094836Y-76602895D01*
X92094836Y-76602895D02*
X92094836Y-76698133D01*
X92094836Y-76698133D02*
X92047217Y-76793371D01*
X92047217Y-76793371D02*
X91999598Y-76840990D01*
X91999598Y-76840990D02*
X91904360Y-76888609D01*
X91904360Y-76888609D02*
X91571027Y-76888609D01*
X106160265Y-86016704D02*
X106636455Y-86016704D01*
X106065027Y-86302419D02*
X106398360Y-85302419D01*
X106398360Y-85302419D02*
X106731693Y-86302419D01*
X107493598Y-85302419D02*
X107303122Y-85302419D01*
X107303122Y-85302419D02*
X107207884Y-85350038D01*
X107207884Y-85350038D02*
X107160265Y-85397657D01*
X107160265Y-85397657D02*
X107065027Y-85540514D01*
X107065027Y-85540514D02*
X107017408Y-85730990D01*
X107017408Y-85730990D02*
X107017408Y-86111942D01*
X107017408Y-86111942D02*
X107065027Y-86207180D01*
X107065027Y-86207180D02*
X107112646Y-86254800D01*
X107112646Y-86254800D02*
X107207884Y-86302419D01*
X107207884Y-86302419D02*
X107398360Y-86302419D01*
X107398360Y-86302419D02*
X107493598Y-86254800D01*
X107493598Y-86254800D02*
X107541217Y-86207180D01*
X107541217Y-86207180D02*
X107588836Y-86111942D01*
X107588836Y-86111942D02*
X107588836Y-85873847D01*
X107588836Y-85873847D02*
X107541217Y-85778609D01*
X107541217Y-85778609D02*
X107493598Y-85730990D01*
X107493598Y-85730990D02*
X107398360Y-85683371D01*
X107398360Y-85683371D02*
X107207884Y-85683371D01*
X107207884Y-85683371D02*
X107112646Y-85730990D01*
X107112646Y-85730990D02*
X107065027Y-85778609D01*
X107065027Y-85778609D02*
X107017408Y-85873847D01*
X114018360Y-85302419D02*
X114208836Y-85302419D01*
X114208836Y-85302419D02*
X114304074Y-85350038D01*
X114304074Y-85350038D02*
X114399312Y-85445276D01*
X114399312Y-85445276D02*
X114446931Y-85635752D01*
X114446931Y-85635752D02*
X114446931Y-85969085D01*
X114446931Y-85969085D02*
X114399312Y-86159561D01*
X114399312Y-86159561D02*
X114304074Y-86254800D01*
X114304074Y-86254800D02*
X114208836Y-86302419D01*
X114208836Y-86302419D02*
X114018360Y-86302419D01*
X114018360Y-86302419D02*
X113923122Y-86254800D01*
X113923122Y-86254800D02*
X113827884Y-86159561D01*
X113827884Y-86159561D02*
X113780265Y-85969085D01*
X113780265Y-85969085D02*
X113780265Y-85635752D01*
X113780265Y-85635752D02*
X113827884Y-85445276D01*
X113827884Y-85445276D02*
X113923122Y-85350038D01*
X113923122Y-85350038D02*
X114018360Y-85302419D01*
X114875503Y-85778609D02*
X115208836Y-85778609D01*
X115351693Y-86302419D02*
X114875503Y-86302419D01*
X114875503Y-86302419D02*
X114875503Y-85302419D01*
X114875503Y-85302419D02*
X115351693Y-85302419D01*
X90825027Y-85302419D02*
X91158360Y-86302419D01*
X91158360Y-86302419D02*
X91491693Y-85302419D01*
X91777408Y-86016704D02*
X92253598Y-86016704D01*
X91682170Y-86302419D02*
X92015503Y-85302419D01*
X92015503Y-85302419D02*
X92348836Y-86302419D01*
X96127217Y-76888609D02*
X96270074Y-76936228D01*
X96270074Y-76936228D02*
X96317693Y-76983847D01*
X96317693Y-76983847D02*
X96365312Y-77079085D01*
X96365312Y-77079085D02*
X96365312Y-77221942D01*
X96365312Y-77221942D02*
X96317693Y-77317180D01*
X96317693Y-77317180D02*
X96270074Y-77364800D01*
X96270074Y-77364800D02*
X96174836Y-77412419D01*
X96174836Y-77412419D02*
X95793884Y-77412419D01*
X95793884Y-77412419D02*
X95793884Y-76412419D01*
X95793884Y-76412419D02*
X96127217Y-76412419D01*
X96127217Y-76412419D02*
X96222455Y-76460038D01*
X96222455Y-76460038D02*
X96270074Y-76507657D01*
X96270074Y-76507657D02*
X96317693Y-76602895D01*
X96317693Y-76602895D02*
X96317693Y-76698133D01*
X96317693Y-76698133D02*
X96270074Y-76793371D01*
X96270074Y-76793371D02*
X96222455Y-76840990D01*
X96222455Y-76840990D02*
X96127217Y-76888609D01*
X96127217Y-76888609D02*
X95793884Y-76888609D01*
X96746265Y-76507657D02*
X96793884Y-76460038D01*
X96793884Y-76460038D02*
X96889122Y-76412419D01*
X96889122Y-76412419D02*
X97127217Y-76412419D01*
X97127217Y-76412419D02*
X97222455Y-76460038D01*
X97222455Y-76460038D02*
X97270074Y-76507657D01*
X97270074Y-76507657D02*
X97317693Y-76602895D01*
X97317693Y-76602895D02*
X97317693Y-76698133D01*
X97317693Y-76698133D02*
X97270074Y-76840990D01*
X97270074Y-76840990D02*
X96698646Y-77412419D01*
X96698646Y-77412419D02*
X97317693Y-77412419D01*
X108954265Y-86016704D02*
X109430455Y-86016704D01*
X108859027Y-86302419D02*
X109192360Y-85302419D01*
X109192360Y-85302419D02*
X109525693Y-86302419D01*
X109763789Y-85302419D02*
X110430455Y-85302419D01*
X110430455Y-85302419D02*
X110001884Y-86302419D01*
X98667217Y-76888609D02*
X98810074Y-76936228D01*
X98810074Y-76936228D02*
X98857693Y-76983847D01*
X98857693Y-76983847D02*
X98905312Y-77079085D01*
X98905312Y-77079085D02*
X98905312Y-77221942D01*
X98905312Y-77221942D02*
X98857693Y-77317180D01*
X98857693Y-77317180D02*
X98810074Y-77364800D01*
X98810074Y-77364800D02*
X98714836Y-77412419D01*
X98714836Y-77412419D02*
X98333884Y-77412419D01*
X98333884Y-77412419D02*
X98333884Y-76412419D01*
X98333884Y-76412419D02*
X98667217Y-76412419D01*
X98667217Y-76412419D02*
X98762455Y-76460038D01*
X98762455Y-76460038D02*
X98810074Y-76507657D01*
X98810074Y-76507657D02*
X98857693Y-76602895D01*
X98857693Y-76602895D02*
X98857693Y-76698133D01*
X98857693Y-76698133D02*
X98810074Y-76793371D01*
X98810074Y-76793371D02*
X98762455Y-76840990D01*
X98762455Y-76840990D02*
X98667217Y-76888609D01*
X98667217Y-76888609D02*
X98333884Y-76888609D01*
X99238646Y-76412419D02*
X99857693Y-76412419D01*
X99857693Y-76412419D02*
X99524360Y-76793371D01*
X99524360Y-76793371D02*
X99667217Y-76793371D01*
X99667217Y-76793371D02*
X99762455Y-76840990D01*
X99762455Y-76840990D02*
X99810074Y-76888609D01*
X99810074Y-76888609D02*
X99857693Y-76983847D01*
X99857693Y-76983847D02*
X99857693Y-77221942D01*
X99857693Y-77221942D02*
X99810074Y-77317180D01*
X99810074Y-77317180D02*
X99762455Y-77364800D01*
X99762455Y-77364800D02*
X99667217Y-77412419D01*
X99667217Y-77412419D02*
X99381503Y-77412419D01*
X99381503Y-77412419D02*
X99286265Y-77364800D01*
X99286265Y-77364800D02*
X99238646Y-77317180D01*
X111240265Y-86016704D02*
X111716455Y-86016704D01*
X111145027Y-86302419D02*
X111478360Y-85302419D01*
X111478360Y-85302419D02*
X111811693Y-86302419D01*
X112287884Y-85730990D02*
X112192646Y-85683371D01*
X112192646Y-85683371D02*
X112145027Y-85635752D01*
X112145027Y-85635752D02*
X112097408Y-85540514D01*
X112097408Y-85540514D02*
X112097408Y-85492895D01*
X112097408Y-85492895D02*
X112145027Y-85397657D01*
X112145027Y-85397657D02*
X112192646Y-85350038D01*
X112192646Y-85350038D02*
X112287884Y-85302419D01*
X112287884Y-85302419D02*
X112478360Y-85302419D01*
X112478360Y-85302419D02*
X112573598Y-85350038D01*
X112573598Y-85350038D02*
X112621217Y-85397657D01*
X112621217Y-85397657D02*
X112668836Y-85492895D01*
X112668836Y-85492895D02*
X112668836Y-85540514D01*
X112668836Y-85540514D02*
X112621217Y-85635752D01*
X112621217Y-85635752D02*
X112573598Y-85683371D01*
X112573598Y-85683371D02*
X112478360Y-85730990D01*
X112478360Y-85730990D02*
X112287884Y-85730990D01*
X112287884Y-85730990D02*
X112192646Y-85778609D01*
X112192646Y-85778609D02*
X112145027Y-85826228D01*
X112145027Y-85826228D02*
X112097408Y-85921466D01*
X112097408Y-85921466D02*
X112097408Y-86111942D01*
X112097408Y-86111942D02*
X112145027Y-86207180D01*
X112145027Y-86207180D02*
X112192646Y-86254800D01*
X112192646Y-86254800D02*
X112287884Y-86302419D01*
X112287884Y-86302419D02*
X112478360Y-86302419D01*
X112478360Y-86302419D02*
X112573598Y-86254800D01*
X112573598Y-86254800D02*
X112621217Y-86207180D01*
X112621217Y-86207180D02*
X112668836Y-86111942D01*
X112668836Y-86111942D02*
X112668836Y-85921466D01*
X112668836Y-85921466D02*
X112621217Y-85826228D01*
X112621217Y-85826228D02*
X112573598Y-85778609D01*
X112573598Y-85778609D02*
X112478360Y-85730990D01*
X148769905Y-68425419D02*
X148769905Y-67425419D01*
X148769905Y-67425419D02*
X149150857Y-67425419D01*
X149150857Y-67425419D02*
X149246095Y-67473038D01*
X149246095Y-67473038D02*
X149293714Y-67520657D01*
X149293714Y-67520657D02*
X149341333Y-67615895D01*
X149341333Y-67615895D02*
X149341333Y-67758752D01*
X149341333Y-67758752D02*
X149293714Y-67853990D01*
X149293714Y-67853990D02*
X149246095Y-67901609D01*
X149246095Y-67901609D02*
X149150857Y-67949228D01*
X149150857Y-67949228D02*
X148769905Y-67949228D01*
X150293714Y-68425419D02*
X149722286Y-68425419D01*
X150008000Y-68425419D02*
X150008000Y-67425419D01*
X150008000Y-67425419D02*
X149912762Y-67568276D01*
X149912762Y-67568276D02*
X149817524Y-67663514D01*
X149817524Y-67663514D02*
X149722286Y-67711133D01*
X150843693Y-71968038D02*
X150748455Y-71920419D01*
X150748455Y-71920419D02*
X150605598Y-71920419D01*
X150605598Y-71920419D02*
X150462741Y-71968038D01*
X150462741Y-71968038D02*
X150367503Y-72063276D01*
X150367503Y-72063276D02*
X150319884Y-72158514D01*
X150319884Y-72158514D02*
X150272265Y-72348990D01*
X150272265Y-72348990D02*
X150272265Y-72491847D01*
X150272265Y-72491847D02*
X150319884Y-72682323D01*
X150319884Y-72682323D02*
X150367503Y-72777561D01*
X150367503Y-72777561D02*
X150462741Y-72872800D01*
X150462741Y-72872800D02*
X150605598Y-72920419D01*
X150605598Y-72920419D02*
X150700836Y-72920419D01*
X150700836Y-72920419D02*
X150843693Y-72872800D01*
X150843693Y-72872800D02*
X150891312Y-72825180D01*
X150891312Y-72825180D02*
X150891312Y-72491847D01*
X150891312Y-72491847D02*
X150700836Y-72491847D01*
X151319884Y-72920419D02*
X151319884Y-71920419D01*
X151319884Y-71920419D02*
X151891312Y-72920419D01*
X151891312Y-72920419D02*
X151891312Y-71920419D01*
X152367503Y-72920419D02*
X152367503Y-71920419D01*
X152367503Y-71920419D02*
X152605598Y-71920419D01*
X152605598Y-71920419D02*
X152748455Y-71968038D01*
X152748455Y-71968038D02*
X152843693Y-72063276D01*
X152843693Y-72063276D02*
X152891312Y-72158514D01*
X152891312Y-72158514D02*
X152938931Y-72348990D01*
X152938931Y-72348990D02*
X152938931Y-72491847D01*
X152938931Y-72491847D02*
X152891312Y-72682323D01*
X152891312Y-72682323D02*
X152843693Y-72777561D01*
X152843693Y-72777561D02*
X152748455Y-72872800D01*
X152748455Y-72872800D02*
X152605598Y-72920419D01*
X152605598Y-72920419D02*
X152367503Y-72920419D01*
X146224074Y-71920419D02*
X145747884Y-71920419D01*
X145747884Y-71920419D02*
X145700265Y-72396609D01*
X145700265Y-72396609D02*
X145747884Y-72348990D01*
X145747884Y-72348990D02*
X145843122Y-72301371D01*
X145843122Y-72301371D02*
X146081217Y-72301371D01*
X146081217Y-72301371D02*
X146176455Y-72348990D01*
X146176455Y-72348990D02*
X146224074Y-72396609D01*
X146224074Y-72396609D02*
X146271693Y-72491847D01*
X146271693Y-72491847D02*
X146271693Y-72729942D01*
X146271693Y-72729942D02*
X146224074Y-72825180D01*
X146224074Y-72825180D02*
X146176455Y-72872800D01*
X146176455Y-72872800D02*
X146081217Y-72920419D01*
X146081217Y-72920419D02*
X145843122Y-72920419D01*
X145843122Y-72920419D02*
X145747884Y-72872800D01*
X145747884Y-72872800D02*
X145700265Y-72825180D01*
X146557408Y-71920419D02*
X146890741Y-72920419D01*
X146890741Y-72920419D02*
X147224074Y-71920419D01*
%TO.C,M3*%
X112110000Y-67206000D02*
X122778000Y-67206000D01*
X122778000Y-72540000D01*
X112110000Y-72540000D01*
X112110000Y-67206000D01*
%TO.C,U3*%
X116640000Y-73380000D02*
X143140000Y-73380000D01*
X116640000Y-89580000D02*
X116640000Y-73380000D01*
X143140000Y-73380000D02*
X143140000Y-89580000D01*
X143140000Y-89580000D02*
X116640000Y-89580000D01*
X116640000Y-73380000D02*
X143140000Y-73380000D01*
X143140000Y-89580000D01*
X116640000Y-89580000D01*
X116640000Y-73380000D01*
%TO.C,M1*%
X90110000Y-67206000D02*
X100778000Y-67206000D01*
X100778000Y-72540000D01*
X90110000Y-72540000D01*
X90110000Y-67206000D01*
%TO.C,M2*%
X101110000Y-67206000D02*
X111778000Y-67206000D01*
X111778000Y-72540000D01*
X101110000Y-72540000D01*
X101110000Y-67206000D01*
%TO.C,U4*%
X144110000Y-84206000D02*
X154524000Y-84206000D01*
X154524000Y-89286000D01*
X144110000Y-89286000D01*
X144110000Y-84206000D01*
%TO.C,U1*%
X89820000Y-121540000D02*
X155860000Y-121540000D01*
X155860000Y-91060000D01*
X89820000Y-91060000D01*
X89820000Y-121540000D01*
%TO.C,U2*%
X89780000Y-73380000D02*
X116280000Y-73380000D01*
X89780000Y-89580000D02*
X89780000Y-73380000D01*
X116280000Y-73380000D02*
X116280000Y-89580000D01*
X116280000Y-89580000D02*
X89780000Y-89580000D01*
X89780000Y-73380000D02*
X116280000Y-73380000D01*
X116280000Y-89580000D01*
X89780000Y-89580000D01*
X89780000Y-73380000D01*
%TO.C,P1*%
X144682000Y-67206000D02*
X153318000Y-67206000D01*
X153318000Y-73302000D01*
X144682000Y-73302000D01*
X144682000Y-67206000D01*
%TD*%
M02*
