%TF.GenerationSoftware,KiCad,Pcbnew,9.0.5*%
%TF.CreationDate,2025-10-29T05:44:14+08:00*%
%TF.ProjectId,lilithbot PCB v2,6c696c69-7468-4626-9f74-205043422076,rev?*%
%TF.SameCoordinates,Original*%
%TF.FileFunction,Soldermask,Bot*%
%TF.FilePolarity,Negative*%
%FSLAX46Y46*%
G04 Gerber Fmt 4.6, Leading zero omitted, Abs format (unit mm)*
G04 Created by KiCad (PCBNEW 9.0.5) date 2025-10-29 05:44:14*
%MOMM*%
%LPD*%
G01*
G04 APERTURE LIST*
%ADD10C,3.200000*%
%ADD11C,1.800000*%
%ADD12C,1.700000*%
%ADD13R,1.800000X1.800000*%
%ADD14C,3.000000*%
G04 APERTURE END LIST*
D10*
%TO.C,REF\u002A\u002A*%
X153000000Y-79000000D03*
%TD*%
%TO.C,REF\u002A\u002A*%
X147000000Y-105000000D03*
%TD*%
%TO.C,REF\u002A\u002A*%
X115000000Y-105000000D03*
%TD*%
D11*
%TO.C,M3*%
X113380000Y-70000000D03*
X115920000Y-70000000D03*
X118460000Y-70000000D03*
X121000000Y-70000000D03*
%TD*%
D12*
%TO.C,U3*%
X118540000Y-75000000D03*
X121080000Y-75000000D03*
X123620000Y-75000000D03*
X126160000Y-75000000D03*
X128700000Y-75000000D03*
X131240000Y-75000000D03*
X133780000Y-75000000D03*
X136320000Y-75000000D03*
X138860000Y-75000000D03*
X141400000Y-75000000D03*
X118540000Y-87700000D03*
X121080000Y-87700000D03*
X123620000Y-87700000D03*
X126160000Y-87700000D03*
X128700000Y-87700000D03*
X131240000Y-87700000D03*
X133780000Y-87700000D03*
X136320000Y-87700000D03*
X138860000Y-87700000D03*
X141400000Y-87700000D03*
%TD*%
D11*
%TO.C,M1*%
X91380000Y-70000000D03*
X93920000Y-70000000D03*
X96460000Y-70000000D03*
X99000000Y-70000000D03*
%TD*%
%TO.C,M2*%
X102380000Y-70000000D03*
X104920000Y-70000000D03*
X107460000Y-70000000D03*
X110000000Y-70000000D03*
%TD*%
%TO.C,U4*%
X145380000Y-87000000D03*
X147920000Y-87000000D03*
X150460000Y-87000000D03*
X153000000Y-87000000D03*
%TD*%
D13*
%TO.C,U1*%
X99980000Y-119000000D03*
D11*
X102520000Y-119000000D03*
X105060000Y-119000000D03*
X107600000Y-119000000D03*
X110140000Y-119000000D03*
X112680000Y-119000000D03*
X115220000Y-119000000D03*
X117760000Y-119000000D03*
X120300000Y-119000000D03*
X122840000Y-119000000D03*
X125380000Y-119000000D03*
X127920000Y-119000000D03*
X130460000Y-119000000D03*
X133000000Y-119000000D03*
X135540000Y-119000000D03*
X138080000Y-119000000D03*
X140620000Y-119000000D03*
X143160000Y-119000000D03*
X145700000Y-119000000D03*
X148240000Y-119000000D03*
X150780000Y-119000000D03*
X153320000Y-119000000D03*
D13*
X99980000Y-93600000D03*
D11*
X102520000Y-93600000D03*
X105060000Y-93600000D03*
X107600000Y-93600000D03*
X110140000Y-93600000D03*
X112680000Y-93600000D03*
X115220000Y-93600000D03*
X117760000Y-93600000D03*
X120300000Y-93600000D03*
X122840000Y-93600000D03*
X125380000Y-93600000D03*
X127920000Y-93600000D03*
X130460000Y-93600000D03*
X133000000Y-93600000D03*
X135540000Y-93600000D03*
X138080000Y-93600000D03*
X140620000Y-93600000D03*
X143160000Y-93600000D03*
X145700000Y-93600000D03*
X148240000Y-93600000D03*
X150780000Y-93600000D03*
X153320000Y-93600000D03*
%TD*%
D12*
%TO.C,U2*%
X91680000Y-75000000D03*
X94220000Y-75000000D03*
X96760000Y-75000000D03*
X99300000Y-75000000D03*
X101840000Y-75000000D03*
X104380000Y-75000000D03*
X106920000Y-75000000D03*
X109460000Y-75000000D03*
X112000000Y-75000000D03*
X114540000Y-75000000D03*
X91680000Y-87700000D03*
X94220000Y-87700000D03*
X96760000Y-87700000D03*
X99300000Y-87700000D03*
X101840000Y-87700000D03*
X104380000Y-87700000D03*
X106920000Y-87700000D03*
X109460000Y-87700000D03*
X112000000Y-87700000D03*
X114540000Y-87700000D03*
%TD*%
D14*
%TO.C,P1*%
X146460000Y-70000000D03*
X151540000Y-70000000D03*
%TD*%
M02*
